<svg width="21" height="21" viewBox="0 0 21 21" fill="none" xmlns="http://www.w3.org/2000/svg">
<g clip-path="url(#clip0_1554_97356)">
<path d="M3.73476 16.3071C2.67226 16.2333 1.84351 15.44 1.7506 14.3792C1.6481 13.2167 1.5481 11.4521 1.5481 9C1.5481 6.54792 1.6481 4.78292 1.7506 3.62083C1.84351 2.56 2.67226 1.76667 3.73476 1.69292C5.07935 1.59917 7.22643 1.5 10.2981 1.5C13.3693 1.5 15.5168 1.59917 16.8614 1.69292C17.9239 1.76667 18.7527 2.56 18.8456 3.62083C18.9481 4.78333 19.0481 6.54792 19.0481 9C19.0481 11.4521 18.9481 13.2171 18.8456 14.3792C18.7527 15.44 17.9239 16.2333 16.8614 16.3071C15.6102 16.3946 13.6639 16.4863 10.9248 16.4988L7.92393 19.0708C7.3831 19.5342 6.5481 19.15 6.5481 18.4383V16.4446C5.60954 16.4165 4.67159 16.3706 3.73476 16.3071Z" stroke="#333E48" stroke-width="1.5" stroke-linejoin="round"/>
<path d="M14.0056 6.89548C14.491 6.89532 14.8606 6.8925 14.8764 6.88847C14.8839 6.8865 14.8838 6.88453 14.876 6.88255C14.8602 6.87856 14.4952 6.87577 14.0143 6.8756C13.3789 6.87538 12.2547 6.87515 10.2981 6.87515C8.35058 6.87515 7.22767 6.87537 6.59058 6.87558C6.10517 6.87575 5.73558 6.87856 5.71975 6.8826C5.71223 6.88455 5.71223 6.88651 5.71975 6.88847C5.73558 6.8925 6.10517 6.89532 6.59058 6.89548C7.22808 6.8957 8.35058 6.89591 10.2981 6.89591C12.2456 6.89591 13.3685 6.8957 14.0056 6.89548Z" stroke="#333E48" stroke-width="1.5" stroke-linejoin="round"/>
<path d="M11.1841 10.2496C11.5044 10.2494 11.7482 10.2466 11.7587 10.2426C11.7636 10.2406 11.7635 10.2386 11.7584 10.2366C11.7479 10.2326 11.5071 10.2299 11.1899 10.2297C10.7707 10.2295 10.0291 10.2292 8.73824 10.2292C7.45344 10.2292 6.71263 10.2295 6.29234 10.2297C5.9721 10.2298 5.72828 10.2327 5.71783 10.2367C5.71287 10.2386 5.71287 10.2406 5.71783 10.2426C5.72828 10.2466 5.9721 10.2494 6.29234 10.2496C6.71291 10.2498 7.45344 10.25 8.73824 10.25C10.023 10.25 10.7639 10.2498 11.1841 10.2496Z" stroke="#333E48" stroke-width="1.5" stroke-linejoin="round"/>
</g>
<defs>
<clipPath id="clip0_1554_97356">
<rect width="20" height="20" fill="white" transform="translate(0.298096 0.25)"/>
</clipPath>
</defs>
</svg>
