<svg width="19" height="20" viewBox="0 0 19 20" fill="none" xmlns="http://www.w3.org/2000/svg">
<path d="M11.0175 5.47345C11.0593 5.39687 11.121 5.33296 11.1961 5.28844C11.2712 5.24392 11.3569 5.22043 11.4441 5.22043C11.5314 5.22043 11.6171 5.24392 11.6922 5.28844C11.7672 5.33296 11.8289 5.39687 11.8708 5.47345L13.2758 8.04304C13.8111 9.02199 14.616 9.82687 15.595 10.3622L18.1641 11.7672C18.5016 11.9518 18.5016 12.436 18.1641 12.6205L15.595 14.0255C14.616 14.5609 13.8111 15.3657 13.2758 16.3447L11.8708 18.9139C11.6862 19.2514 11.2021 19.2514 11.0175 18.9139L9.61248 16.3447C9.07715 15.3657 8.27227 14.5609 7.29331 14.0255L4.72373 12.6205C4.64714 12.5787 4.58324 12.517 4.53872 12.4419C4.4942 12.3668 4.4707 12.2811 4.4707 12.1939C4.4707 12.1066 4.4942 12.0209 4.53872 11.9458C4.58324 11.8708 4.64714 11.8091 4.72373 11.7672L7.29331 10.3622C8.27227 9.82687 9.07715 9.02199 9.61248 8.04304L11.0175 5.47345Z" fill="#333E48"/>
<path d="M3.36956 1.19553C3.40546 1.13 3.45833 1.07533 3.52262 1.03724C3.58691 0.999159 3.66026 0.979065 3.73498 0.979065C3.8097 0.979065 3.88305 0.999159 3.94734 1.03724C4.01163 1.07533 4.06449 1.13 4.10039 1.19553L4.78289 2.44386C5.01242 2.86338 5.35745 3.20826 5.77706 3.43761L7.02498 4.12053C7.09051 4.15643 7.14518 4.2093 7.18326 4.27359C7.22135 4.33787 7.24144 4.41122 7.24144 4.48594C7.24144 4.56067 7.22135 4.63401 7.18326 4.6983C7.14518 4.76259 7.09051 4.81546 7.02498 4.85136L5.77664 5.53344C5.35698 5.76291 5.01194 6.10794 4.78248 6.52761L4.09998 7.77553C4.06407 7.84106 4.01121 7.89573 3.94692 7.93381C3.88263 7.9719 3.80928 7.99199 3.73456 7.99199C3.65984 7.99199 3.58649 7.9719 3.5222 7.93381C3.45791 7.89573 3.40505 7.84106 3.36914 7.77553L2.68706 6.52719C2.4576 6.10753 2.11256 5.76249 1.69289 5.53303L0.444978 4.85053C0.379447 4.81462 0.324776 4.76176 0.286693 4.69747C0.24861 4.63318 0.228516 4.55983 0.228516 4.48511C0.228516 4.41039 0.24861 4.33704 0.286693 4.27275C0.324776 4.20846 0.379447 4.1556 0.444978 4.11969L1.69331 3.43761C2.11283 3.20808 2.45771 2.86305 2.68706 2.44344L3.36956 1.19553Z" fill="#333E48"/>
</svg>
