<svg width="20" height="20" viewBox="0 0 20 20" fill="none" xmlns="http://www.w3.org/2000/svg">
<path d="M3.43667 16.0571C2.37417 15.9833 1.54542 15.19 1.4525 14.1292C1.35 12.9667 1.25 11.2021 1.25 8.75C1.25 6.29792 1.35 4.53292 1.4525 3.37083C1.54542 2.31 2.37417 1.51667 3.43667 1.44292C4.78125 1.34917 6.92833 1.25 10 1.25C13.0712 1.25 15.2187 1.34917 16.5633 1.44292C17.6258 1.51667 18.4546 2.31 18.5475 3.37083C18.65 4.53333 18.75 6.29792 18.75 8.75C18.75 11.2021 18.65 12.9671 18.5475 14.1292C18.4546 15.19 17.6258 15.9833 16.5633 16.0571C15.3121 16.1446 13.3658 16.2363 10.6267 16.2488L7.62583 18.8208C7.085 19.2842 6.25 18.9 6.25 18.1883V16.1946C5.31144 16.1665 4.3735 16.1206 3.43667 16.0571Z" stroke="#909090" stroke-width="1.5" stroke-linecap="round" stroke-linejoin="round"/>
<path d="M14.9208 6.98375C14.8617 6.23667 14.3467 5.67875 13.6025 5.58792C12.8729 5.49792 11.7317 5.41667 10 5.41667C8.26833 5.41667 7.12708 5.49833 6.3975 5.5875C5.65333 5.67875 5.13833 6.23667 5.07917 6.98375C5.03542 7.53167 5 8.30625 5 9.375C5 10.4438 5.03542 11.2183 5.07917 11.7663C5.13833 12.5133 5.65333 13.0713 6.3975 13.1621C7.12708 13.2517 8.26833 13.3333 10 13.3333C11.7317 13.3333 12.8729 13.2517 13.6025 13.1625C14.3467 13.0713 14.8617 12.5133 14.9208 11.7663C14.9646 11.2183 15 10.4438 15 9.375C15 8.30625 14.9646 7.53167 14.9208 6.98375Z" stroke="#909090" stroke-width="1.5" stroke-linecap="round" stroke-linejoin="round"/>
<path d="M11.6667 7.91667V8.33333" stroke="#909090" stroke-width="1.5" stroke-linecap="round" stroke-linejoin="round"/>
<path d="M8.33325 7.91667V8.33333" stroke="#909090" stroke-width="1.5" stroke-linecap="round" stroke-linejoin="round"/>
<path d="M12.0834 10.8333C12.0834 10.8333 11.4288 11.25 10.0001 11.25C8.57133 11.25 7.91675 10.8333 7.91675 10.8333" stroke="#909090" stroke-width="1.5" stroke-linecap="round" stroke-linejoin="round"/>
<path d="M10 5.41667V3.33334" stroke="#909090" stroke-width="1.5" stroke-linecap="round" stroke-linejoin="round"/>
</svg>
