<svg width="20" height="21" viewBox="0 0 20 21" fill="none" xmlns="http://www.w3.org/2000/svg">
<g clip-path="url(#clip0_1554_97277)">
<path d="M11.1729 1.98333C14.1875 3.32125 16.4725 5.07917 17.6537 6.09458C18.2508 6.60792 18.5838 7.34667 18.6246 8.13292C18.6817 9.2125 18.75 10.9021 18.75 12.75C18.75 14.1717 18.7096 15.5442 18.665 16.6221C18.6423 17.2223 18.3925 17.7915 17.9661 18.2146C17.5398 18.6377 16.9687 18.8831 16.3683 18.9013C14.9267 18.9513 12.7871 19 10 19C7.21292 19 5.07375 18.9508 3.63167 18.9017C3.0313 18.8835 2.46022 18.6381 2.03388 18.215C1.60754 17.7919 1.35775 17.2227 1.335 16.6225C1.28053 15.3324 1.25219 14.0413 1.25 12.75C1.25 10.9021 1.31875 9.2125 1.375 8.13292C1.41667 7.34667 1.74917 6.60792 2.34625 6.09458C3.5275 5.07875 5.81292 3.32125 8.82708 1.98333C9.1964 1.81947 9.59596 1.73481 10 1.73481C10.404 1.73481 10.8036 1.81947 11.1729 1.98333Z" stroke="#909090" stroke-width="1.5" stroke-linecap="round" stroke-linejoin="round"/>
<path d="M6.66675 16.0833H13.3334" stroke="#909090" stroke-width="1.5" stroke-linecap="round" stroke-linejoin="round"/>
</g>
<defs>
<clipPath id="clip0_1554_97277">
<rect width="20" height="20" fill="white" transform="translate(0 0.25)"/>
</clipPath>
</defs>
</svg>
