<svg width="21" height="21" viewBox="0 0 21 21" fill="none" xmlns="http://www.w3.org/2000/svg">
<g clip-path="url(#clip0_1554_97336)">
<path d="M11.501 7.39708C11.501 6.41375 11.6781 4.42 11.8069 3.10208C11.8835 2.31625 12.4048 1.59625 13.1931 1.54708C13.5683 1.52217 13.9451 1.55534 14.3102 1.64541C14.9131 1.79625 15.2277 2.38708 15.251 3.00791C15.2969 4.23541 15.3635 6.57958 15.3635 9.83333C15.5906 9.96041 16.0048 10.1592 16.4535 10.3842C17.7035 11.0112 18.139 12.33 17.6702 13.6483C17.1952 14.9846 16.6694 16.0287 16.2023 16.8071C15.4456 18.0687 14.091 18.7583 12.6248 18.8758C10.7832 19.0217 8.93373 19.0388 7.08979 18.9271C5.30979 18.815 3.79312 17.7383 3.37062 16.005C3.00812 14.5175 2.67979 12.33 2.67896 9.28C2.67896 6.95208 2.75562 5.12166 2.81771 4.01916C2.85854 3.29416 3.29521 2.63833 4.00937 2.50583C4.31354 2.44958 4.66187 2.41416 5.03312 2.43083C5.77896 2.46416 6.27771 3.12875 6.36229 3.87083C6.46646 4.79 6.60271 6.185 6.69479 7.86833C9.55937 7.35541 11.501 7.39708 11.501 7.39708Z" stroke="#333E48" stroke-width="1.5" stroke-linecap="round" stroke-linejoin="round"/>
<path d="M14.1524 13.5833C13.1291 13.5833 12.2757 13.5333 11.6499 13.4792C10.9078 13.4146 10.2361 12.9771 10.022 12.2633C9.97867 12.1181 9.94086 11.9714 9.90864 11.8233C9.73197 11.0171 10.2595 10.27 11.0703 10.1142C12.4703 9.84541 14.1586 9.80416 15.3874 9.83333" stroke="#333E48" stroke-width="1.5" stroke-linecap="round" stroke-linejoin="round"/>
<path d="M14.1373 13.5833C14.1373 13.5833 10.179 13.1667 10.179 16.0833" stroke="#333E48" stroke-width="1.5" stroke-linecap="round" stroke-linejoin="round"/>
</g>
<defs>
<clipPath id="clip0_1554_97336">
<rect width="20" height="20" fill="white" transform="translate(0.178955 0.25)"/>
</clipPath>
</defs>
</svg>
