<svg width="45" height="38" viewBox="0 0 45 38" fill="none" xmlns="http://www.w3.org/2000/svg">
<path d="M43.6782 20.4529C44.0562 20.0686 44.2685 19.5514 44.2693 19.0124V19C44.2682 18.4539 44.0504 17.9306 43.6637 17.5451L35.3971 9.27839C35.2064 9.081 34.9784 8.92356 34.7262 8.81525C34.4741 8.70694 34.2029 8.64992 33.9285 8.64754C33.6541 8.64515 33.382 8.69744 33.128 8.80136C32.874 8.90527 32.6432 9.05873 32.4492 9.25277C32.2551 9.44682 32.1017 9.67757 31.9978 9.93155C31.8939 10.1855 31.8416 10.4577 31.844 10.7321C31.8463 11.0065 31.9034 11.2777 32.0117 11.5298C32.12 11.782 32.2774 12.01 32.4748 12.2007L37.2137 16.9395H17.4026C16.8545 16.9395 16.3288 17.1573 15.9413 17.5448C15.5537 17.9324 15.3359 18.4581 15.3359 19.0062C15.3359 19.5543 15.5537 20.08 15.9413 20.4675C16.3288 20.8551 16.8545 21.0729 17.4026 21.0729H37.2137L32.4748 25.8117C32.0983 26.2015 31.89 26.7235 31.8947 27.2654C31.8995 27.8073 32.1168 28.3256 32.5 28.7088C32.8832 29.092 33.4015 29.3093 33.9434 29.3141C34.4852 29.3188 35.0073 29.1105 35.3971 28.734L43.6637 20.4673L43.6782 20.4529Z" fill="#C4C4C4"/>
<path fill-rule="evenodd" clip-rule="evenodd" d="M16.5333 35.5347C16.5333 34.9866 16.3156 34.4609 15.928 34.0733C15.5404 33.6858 15.0148 33.468 14.4667 33.468H4.13333V4.5347H14.4667C15.0148 4.5347 15.5404 4.31696 15.928 3.92939C16.3156 3.54181 16.5333 3.01615 16.5333 2.46803C16.5333 1.91992 16.3156 1.39425 15.928 1.00668C15.5404 0.619105 15.0148 0.401367 14.4667 0.401367H4.13333C3.03711 0.401367 1.98578 0.836842 1.21063 1.61199C0.435475 2.38714 0 3.43847 0 4.5347V33.468C0 34.5643 0.435475 35.6156 1.21063 36.3907C1.98578 37.1659 3.03711 37.6014 4.13333 37.6014H14.4667C15.0148 37.6014 15.5404 37.3836 15.928 36.9961C16.3156 36.6085 16.5333 36.0828 16.5333 35.5347Z" fill="#C4C4C4"/>
</svg>
