<svg width="21" height="21" viewBox="0 0 21 21" fill="none" xmlns="http://www.w3.org/2000/svg">
<g clip-path="url(#clip0_1554_97348)">
<path d="M2.32178 12.025C2.32178 9.07792 3.48261 7.255 4.55261 6.22792C5.01094 5.7875 5.70844 6.16208 5.89386 6.76625C6.08136 7.37833 6.37094 7.84417 6.63719 8.15792C6.86511 8.42583 7.24136 8.50458 7.57386 8.38292C9.97719 7.50208 10.6968 4.58292 10.7809 2.37958C10.8051 1.74125 11.4859 1.285 12.0472 1.60458C14.6309 3.075 18.1551 5.93 18.1551 10.7862C18.1551 16.5358 14.2622 19 10.2384 19C6.21469 19 2.32178 16.5358 2.32178 12.025Z" stroke="#333E48" stroke-width="1.5" stroke-linecap="round" stroke-linejoin="round"/>
</g>
<defs>
<clipPath id="clip0_1554_97348">
<rect width="20" height="20" fill="white" transform="translate(0.238525 0.25)"/>
</clipPath>
</defs>
</svg>
