<svg width="20" height="17" viewBox="0 0 20 17" fill="none" xmlns="http://www.w3.org/2000/svg">
<path d="M3.16132 15.1429C2.23216 15.0737 1.53091 14.4087 1.44466 13.4804C1.38037 12.7618 1.33535 12.0415 1.30966 11.3204C1.29507 10.935 1.55966 10.6046 1.89299 10.4117C2.27276 10.1929 2.58823 9.87797 2.80766 9.49857C3.02709 9.11918 3.14274 8.68869 3.14299 8.25041C3.14267 7.8122 3.02698 7.3818 2.80755 7.00249C2.58813 6.62318 2.2727 6.30832 1.89299 6.08958C1.55966 5.89625 1.29507 5.56583 1.30966 5.18083C1.34507 4.26416 1.39424 3.55708 1.44424 3.01958C1.53049 2.09166 2.23174 1.42666 3.16091 1.35708C4.40007 1.26458 6.54007 1.16666 10.0597 1.16666C13.5792 1.16666 15.7192 1.26416 16.958 1.35708C17.8872 1.42625 18.5884 2.09125 18.6747 3.01958C18.7247 3.55666 18.7734 4.26375 18.8088 5.18C18.8238 5.56541 18.5588 5.89541 18.2255 6.08875C17.8459 6.30766 17.5306 6.62263 17.3114 7.00201C17.0921 7.38139 16.9765 7.81181 16.9763 8.25C16.9766 8.68827 17.0923 9.11874 17.3117 9.49812C17.5311 9.87751 17.8466 10.1924 18.2263 10.4112C18.5597 10.6042 18.8242 10.9346 18.8097 11.3196C18.7841 12.0411 18.7393 12.7617 18.6751 13.4808C18.5888 14.4087 17.8876 15.0737 16.9584 15.1433C15.7197 15.2358 13.5792 15.3333 10.0601 15.3333C6.54049 15.3333 4.40007 15.2358 3.16132 15.1429Z" stroke="#909090" stroke-width="1.5" stroke-linejoin="round"/>
<path d="M12.5596 13.6667V15.2292" stroke="#909090" stroke-width="1.5" stroke-linecap="round" stroke-linejoin="round"/>
<path d="M12.5596 9.49999V11.1667" stroke="#909090" stroke-width="1.5" stroke-linecap="round" stroke-linejoin="round"/>
<path d="M12.5596 5.33333V6.99999" stroke="#909090" stroke-width="1.5" stroke-linecap="round" stroke-linejoin="round"/>
<path d="M12.5596 1.27083V2.83333" stroke="#909090" stroke-width="1.5" stroke-linecap="round" stroke-linejoin="round"/>
</svg>
