<svg width="21" height="21" viewBox="0 0 21 21" fill="none" xmlns="http://www.w3.org/2000/svg">
<g clip-path="url(#clip0_1554_97301)">
<path d="M3.16132 17.1429C2.23216 17.0737 1.53091 16.4087 1.44466 15.4804C1.38037 14.7618 1.33535 14.0415 1.30966 13.3204C1.29507 12.935 1.55966 12.6046 1.89299 12.4117C2.27276 12.1929 2.58823 11.878 2.80766 11.4986C3.02709 11.1192 3.14274 10.6887 3.14299 10.2504C3.14267 9.8122 3.02698 9.3818 2.80755 9.00249C2.58813 8.62318 2.2727 8.30832 1.89299 8.08958C1.55966 7.89625 1.29507 7.56583 1.30966 7.18083C1.34507 6.26416 1.39424 5.55708 1.44424 5.01958C1.53049 4.09166 2.23174 3.42666 3.16091 3.35708C4.40007 3.26458 6.54007 3.16666 10.0597 3.16666C13.5792 3.16666 15.7192 3.26416 16.958 3.35708C17.8872 3.42625 18.5884 4.09125 18.6747 5.01958C18.7247 5.55666 18.7734 6.26375 18.8088 7.18C18.8238 7.56541 18.5588 7.89541 18.2255 8.08875C17.8459 8.30766 17.5306 8.62263 17.3114 9.00201C17.0921 9.38139 16.9765 9.81181 16.9763 10.25C16.9766 10.6883 17.0923 11.1187 17.3117 11.4981C17.5311 11.8775 17.8466 12.1924 18.2263 12.4112C18.5597 12.6042 18.8242 12.9346 18.8097 13.3196C18.7841 14.0411 18.7393 14.7617 18.6751 15.4808C18.5888 16.4087 17.8876 17.0737 16.9584 17.1433C15.7197 17.2358 13.5792 17.3333 10.0601 17.3333C6.54049 17.3333 4.40007 17.2358 3.16132 17.1429Z" stroke="#333E48" stroke-width="1.5" stroke-linejoin="round"/>
<path d="M12.5596 15.6667V17.2292" stroke="#333E48" stroke-width="1.5" stroke-linecap="round" stroke-linejoin="round"/>
<path d="M12.5596 11.5V13.1667" stroke="#333E48" stroke-width="1.5" stroke-linecap="round" stroke-linejoin="round"/>
<path d="M12.5596 7.33333V9" stroke="#333E48" stroke-width="1.5" stroke-linecap="round" stroke-linejoin="round"/>
<path d="M12.5596 3.27083V4.83333" stroke="#333E48" stroke-width="1.5" stroke-linecap="round" stroke-linejoin="round"/>
</g>
<defs>
<clipPath id="clip0_1554_97301">
<rect width="20" height="20" fill="white" transform="translate(0.0595703 0.25)"/>
</clipPath>
</defs>
</svg>
