<svg width="21" height="21" viewBox="0 0 21 21" fill="none" xmlns="http://www.w3.org/2000/svg">
<g clip-path="url(#clip0_1554_97317)">
<path d="M9.28613 10.6667H10.9528" stroke="#333E48" stroke-width="1.5" stroke-linecap="round" stroke-linejoin="round"/>
<path d="M13.4526 10.6667H15.1193" stroke="#333E48" stroke-width="1.5" stroke-linecap="round" stroke-linejoin="round"/>
<path d="M6.78605 10.6667H5.11938" stroke="#333E48" stroke-width="1.5" stroke-linecap="round" stroke-linejoin="round"/>
<path d="M9.28613 14.8333H10.9528" stroke="#333E48" stroke-width="1.5" stroke-linecap="round" stroke-linejoin="round"/>
<path d="M13.4526 14.8333H15.1193" stroke="#333E48" stroke-width="1.5" stroke-linecap="round" stroke-linejoin="round"/>
<path d="M6.78605 14.8333H5.11938" stroke="#333E48" stroke-width="1.5" stroke-linecap="round" stroke-linejoin="round"/>
<path d="M4.70397 3.81792C4.23022 3.86375 3.82063 3.91167 3.47397 3.95792C2.55772 4.08 1.85855 4.76959 1.7273 5.68459C1.5573 6.86959 1.36938 8.75417 1.36938 11.2917C1.36938 13.8292 1.5573 15.7142 1.7273 16.8992C1.85855 17.8142 2.55772 18.5033 3.47397 18.6258C4.77813 18.7996 6.96563 19 10.1194 19C13.2727 19 15.4602 18.8 16.7648 18.6258C17.6811 18.5038 18.3802 17.8142 18.5115 16.8992C18.6815 15.7142 18.8694 13.8292 18.8694 11.2917C18.8694 8.75459 18.6815 6.86959 18.5115 5.68459C18.3802 4.76959 17.6811 4.08 16.7648 3.95792C16.3557 3.90384 15.9456 3.85717 15.5348 3.81792" stroke="#333E48" stroke-width="1.5" stroke-linecap="round" stroke-linejoin="round"/>
<path d="M12.2028 3.61417C11.5086 3.59331 10.814 3.58303 10.1195 3.58333C9.37113 3.58333 8.67697 3.59459 8.03613 3.61417" stroke="#333E48" stroke-width="1.5" stroke-linecap="round" stroke-linejoin="round"/>
<path d="M12.2081 4.1125C12.226 4.97917 12.7952 5.65167 13.6619 5.665C13.8002 5.66709 13.9385 5.66709 14.0769 5.665C14.9435 5.65167 15.5127 4.97917 15.5306 4.1125C15.5379 3.75976 15.5379 3.40691 15.5306 3.05417C15.5127 2.1875 14.9435 1.515 14.0769 1.50167C13.9385 1.49955 13.8002 1.49955 13.6619 1.50167C12.7952 1.515 12.226 2.1875 12.2081 3.05417C12.2008 3.40691 12.2008 3.75976 12.2081 4.1125Z" stroke="#333E48" stroke-width="1.5" stroke-linecap="round" stroke-linejoin="round"/>
<path d="M4.70812 4.1125C4.72604 4.97917 5.29521 5.65167 6.16187 5.665C6.3002 5.66709 6.43855 5.66709 6.57687 5.665C7.44354 5.65167 8.01271 4.97917 8.03062 4.1125C8.03794 3.75976 8.03794 3.40691 8.03062 3.05417C8.01271 2.1875 7.44354 1.515 6.57687 1.50167C6.43855 1.49955 6.3002 1.49955 6.16187 1.50167C5.29521 1.515 4.72604 2.1875 4.70812 3.05417C4.70081 3.40691 4.70081 3.75976 4.70812 4.1125Z" stroke="#333E48" stroke-width="1.5" stroke-linecap="round" stroke-linejoin="round"/>
</g>
<defs>
<clipPath id="clip0_1554_97317">
<rect width="20" height="20" fill="white" transform="translate(0.119385 0.25)"/>
</clipPath>
</defs>
</svg>
