<svg width="41" height="48" viewBox="0 0 41 48" fill="none" xmlns="http://www.w3.org/2000/svg">
<path d="M14.0122 42.9093C13.0785 42.9038 12.1718 42.5948 11.4289 42.0291L7.4678 39.0821C6.5537 38.3694 5.94718 37.3338 5.77281 36.1879C5.59843 35.042 5.86942 33.8728 6.53014 32.9204C6.87973 32.4042 7.1019 31.8125 7.17841 31.1937C7.25492 30.575 7.18359 29.947 6.97027 29.3612L6.85545 29.055C6.70692 28.5247 6.43544 28.037 6.06306 27.6314C5.69067 27.2257 5.22787 26.9136 4.71224 26.7204H4.40607C3.28829 26.3445 2.36392 25.5429 1.83366 24.4896C1.30341 23.4362 1.21009 22.2162 1.57397 21.0945L3.14311 16.1192C3.28755 15.5427 3.55349 15.0038 3.92311 14.5385C4.29273 14.0731 4.75751 13.6922 5.28632 13.421C5.77878 13.1673 6.31761 13.0161 6.87018 12.9766C7.42276 12.9372 7.97761 13.0102 8.50113 13.1914C9.07116 13.3832 9.67941 13.433 10.273 13.3363C10.8666 13.2395 11.4277 12.9993 11.9073 12.6365L12.1561 12.4451C12.5903 12.0987 12.9412 11.6592 13.1829 11.1591C13.4247 10.659 13.5511 10.1111 13.553 9.5556V9.09634C13.5478 7.92548 14.0055 6.79999 14.8262 5.96492C15.6469 5.12985 16.7643 4.65282 17.9351 4.6377H22.8147C23.3843 4.63923 23.9481 4.75328 24.4735 4.9733C24.9989 5.19333 25.4757 5.51498 25.8764 5.91979C26.719 6.77668 27.187 7.93293 27.1777 9.13461V9.67041C27.168 10.1981 27.2824 10.7207 27.5118 11.196C27.7411 11.6713 28.079 12.0861 28.4981 12.4068L28.7085 12.5599C29.138 12.882 29.639 13.0954 30.1688 13.182C30.6986 13.2687 31.2414 13.2259 31.7511 13.0574L32.4018 12.847C32.953 12.6642 33.5354 12.5944 34.1142 12.6416C34.693 12.6888 35.2564 12.8522 35.7707 13.1218C36.285 13.3915 36.7398 13.762 37.1078 14.2112C37.4758 14.6604 37.7496 15.1791 37.9129 15.7365L39.4246 20.5587C39.7744 21.6731 39.6788 22.8798 39.1578 23.9252C38.6369 24.9707 37.7311 25.7736 36.6308 26.1655L36.2481 26.2994C35.6852 26.4837 35.1761 26.8035 34.7657 27.2306C34.3553 27.6577 34.0561 28.179 33.8943 28.7488C33.742 29.2785 33.7059 29.8348 33.7885 30.3798C33.8711 30.9247 34.0704 31.4454 34.3727 31.9062L34.8703 32.6334C35.5301 33.591 35.7985 34.7648 35.6206 35.914C35.4427 37.0633 34.8319 38.1009 33.9135 38.8142L30.0672 41.7803C29.6025 42.1357 29.07 42.3921 28.5025 42.534C27.9349 42.6758 27.3443 42.6999 26.7671 42.6049C26.1899 42.5099 25.6382 42.2978 25.1461 41.9815C24.6539 41.6653 24.2317 41.2516 23.9055 40.7661L23.6758 40.4408C23.3624 39.9698 22.9348 39.5859 22.4328 39.3249C21.9309 39.0639 21.371 38.9343 20.8055 38.9482C20.2658 38.9622 19.7369 39.1028 19.2616 39.3587C18.7863 39.6147 18.3778 39.9788 18.069 40.4216L17.6289 41.0531C17.3025 41.5421 16.8795 41.959 16.3858 42.2783C15.8922 42.5975 15.3384 42.8123 14.7585 42.9093C14.5104 42.9336 14.2604 42.9336 14.0122 42.9093ZM5.95607 23.0463C7.03665 23.4317 8.01169 24.0653 8.80271 24.8962C9.59373 25.7271 10.1787 26.7321 10.5104 27.8303V28.0599C10.9236 29.2016 11.0593 30.4252 10.9062 31.6297C10.7532 32.8342 10.3158 33.985 9.63015 34.9871C9.50913 35.1208 9.44211 35.2947 9.44211 35.475C9.44211 35.6554 9.50913 35.8293 9.63015 35.963L13.7443 39.0821C13.798 39.1243 13.8601 39.1545 13.9264 39.1707C13.9927 39.1869 14.0617 39.1887 14.1288 39.176C14.1958 39.1633 14.2594 39.1364 14.3152 39.0971C14.371 39.0578 14.4178 39.007 14.4524 38.9482L14.8925 38.3167C15.5563 37.3576 16.4428 36.5737 17.4759 36.0322C18.5091 35.4908 19.6582 35.208 20.8246 35.208C21.991 35.208 23.1401 35.4908 24.1733 36.0322C25.2064 36.5737 26.0929 37.3576 26.7567 38.3167L26.9863 38.6612C27.0686 38.7779 27.1914 38.8597 27.3308 38.8908C27.3947 38.9002 27.4599 38.8966 27.5224 38.8802C27.5848 38.8637 27.6433 38.8348 27.6943 38.7951L31.6363 35.8099C31.7743 35.7004 31.8651 35.5422 31.89 35.3678C31.9149 35.1934 31.8721 35.016 31.7703 34.8723L31.2727 34.1451C30.6245 33.1998 30.1968 32.121 30.0212 30.9882C29.8457 29.8555 29.9268 28.6978 30.2585 27.6007C30.5948 26.4475 31.2032 25.3919 32.0323 24.5228C32.8615 23.6537 33.8873 22.9964 35.0234 22.6062L35.4061 22.4723C35.5656 22.4084 35.6933 22.284 35.7614 22.1262C35.8296 21.9685 35.8325 21.7902 35.7697 21.6303L34.2771 16.8655C34.2412 16.7821 34.1888 16.7069 34.123 16.6444C34.0572 16.5819 33.9794 16.5334 33.8943 16.5019C33.838 16.4733 33.7757 16.4584 33.7126 16.4584C33.6494 16.4584 33.5871 16.4733 33.5308 16.5019L32.8801 16.7124C31.7796 17.0756 30.6072 17.1661 29.4639 16.9761C28.3206 16.7861 27.2405 16.3213 26.3166 15.6216L26.24 15.4494C25.3534 14.778 24.6345 13.9102 24.1398 12.9141C23.6451 11.918 23.388 10.8208 23.3888 9.70868V9.11547C23.3923 8.93103 23.3236 8.75252 23.1974 8.61794C23.0873 8.51845 22.944 8.46383 22.7956 8.46486H17.9351C17.8571 8.46972 17.7809 8.48994 17.7108 8.52434C17.6406 8.55874 17.578 8.60665 17.5264 8.66533C17.4749 8.724 17.4354 8.79228 17.4103 8.86624C17.3852 8.94021 17.375 9.0184 17.3801 9.09634V9.57473C17.3803 10.7172 17.1181 11.8445 16.6138 12.8696C16.1095 13.8948 15.3766 14.7905 14.4715 15.4877L14.2227 15.6791C13.2463 16.4225 12.102 16.9143 10.8906 17.1112C9.67926 17.3081 8.43807 17.204 7.27644 16.8081C7.18952 16.7789 7.09546 16.7789 7.00854 16.8081C6.90054 16.8737 6.81921 16.9753 6.77891 17.0951L5.19064 22.0895C5.13527 22.2596 5.14825 22.4446 5.22682 22.6053C5.30538 22.766 5.44338 22.8899 5.61163 22.9507L5.95607 23.0463Z" fill="#C4C4C4"/>
<path d="M20.4983 30.4773C19.1737 30.4773 17.8788 30.0845 16.7774 29.3486C15.676 28.6127 14.8175 27.5667 14.3106 26.3428C13.8037 25.119 13.671 23.7724 13.9295 22.4732C14.1879 21.174 14.8258 19.9806 15.7624 19.0439C16.6991 18.1073 17.8925 17.4694 19.1917 17.211C20.4909 16.9525 21.8375 17.0852 23.0613 17.5921C24.2852 18.099 25.3312 18.9575 26.0671 20.0589C26.803 21.1603 27.1958 22.4552 27.1958 23.7798C27.1958 25.5561 26.4902 27.2596 25.2342 28.5157C23.9782 29.7717 22.2746 30.4773 20.4983 30.4773ZM20.4983 20.9094C19.9306 20.9094 19.3757 21.0778 18.9036 21.3932C18.4316 21.7086 18.0637 22.1569 17.8464 22.6814C17.6292 23.2059 17.5723 23.783 17.6831 24.3398C17.7939 24.8966 18.0672 25.408 18.4687 25.8095C18.8701 26.2109 19.3815 26.4843 19.9383 26.595C20.4951 26.7058 21.0723 26.6489 21.5968 26.4317C22.1212 26.2144 22.5695 25.8465 22.8849 25.3745C23.2003 24.9025 23.3687 24.3475 23.3687 23.7798C23.3687 23.0185 23.0663 22.2884 22.528 21.7502C21.9897 21.2119 21.2596 20.9094 20.4983 20.9094Z" fill="#C4C4C4"/>
</svg>
