<svg width="42" height="41" viewBox="0 0 42 41" fill="none" xmlns="http://www.w3.org/2000/svg">
<path d="M1.63151 23.9167H4.5613C4.99693 26.0521 5.84255 28.1021 7.03839 29.9129L4.9713 31.98C4.80901 32.1423 4.72359 32.3558 4.72359 32.5865C4.72359 32.8085 4.80901 33.0221 4.9713 33.1844L8.59297 36.8146C8.92609 37.1477 9.46422 37.1477 9.80589 36.8146L11.873 34.7475C13.6838 35.9433 15.7338 36.789 17.8607 37.2246V40.1458C17.8607 40.6242 18.2451 41 18.7148 41H23.8398C24.3096 41 24.694 40.6242 24.694 40.1458V37.2246C26.8294 36.789 28.8709 35.9433 30.6903 34.7475L32.7573 36.8146C33.0905 37.1477 33.6286 37.1477 33.9617 36.8146L37.5834 33.1844C37.9165 32.8512 37.9165 32.3131 37.5834 31.98L35.5163 29.9129C36.7207 28.0935 37.5663 26.0521 38.0019 23.9167H40.9232C41.393 23.9167 41.7773 23.5408 41.7773 23.0625V17.9375C41.7773 17.4677 41.393 17.0833 40.9232 17.0833H38.0019C37.5663 14.9565 36.7207 12.9065 35.5163 11.0956L37.5834 9.02854C37.9165 8.69542 37.9165 8.15729 37.5834 7.81562L33.9617 4.19396C33.6286 3.86083 33.0905 3.86083 32.7573 4.19396L30.6903 6.26104C28.8709 5.06521 26.8294 4.21958 24.694 3.78396V0.854167C24.694 0.384375 24.3096 0 23.8398 0H18.7148C18.2451 0 17.8607 0.384375 17.8607 0.854167V3.78396C15.7338 4.21958 13.6838 5.06521 11.873 6.26104L9.80589 4.19396C9.46422 3.86083 8.92609 3.86083 8.59297 4.19396L4.9713 7.81562C4.80901 7.97792 4.72359 8.2 4.72359 8.42208C4.72359 8.65271 4.80901 8.86625 4.9713 9.02854L7.03839 11.0956C5.84255 12.9065 4.99693 14.9565 4.5613 17.0833H1.63151C1.16172 17.0833 0.777344 17.4677 0.777344 17.9375V23.0625C0.777344 23.5408 1.16172 23.9167 1.63151 23.9167ZM21.2773 12.8125C25.514 12.8125 28.9648 16.2633 28.9648 20.5C28.9648 24.7452 25.514 28.1875 21.2773 28.1875C17.0407 28.1875 13.5898 24.7452 13.5898 20.5C13.5898 16.2633 17.0407 12.8125 21.2773 12.8125Z" fill="black"/>
</svg>
