<svg width="41" height="47" viewBox="0 0 41 47" fill="none" xmlns="http://www.w3.org/2000/svg">
<path d="M22.1982 22.9963C23.4606 22.9963 24.6712 23.5231 25.5638 24.4608C26.4564 25.3985 26.9579 26.6703 26.9579 27.9963L26.9547 30.4913C27.2815 36.613 22.7932 39.6663 14.4686 39.6663C6.17262 39.6663 1.58594 36.653 1.58594 30.578V27.9963C1.58594 26.6703 2.0874 25.3985 2.98 24.4608C3.8726 23.5231 5.08322 22.9963 6.34555 22.9963H22.1982ZM34.8906 22.9963C36.1529 22.9963 37.3635 23.5231 38.2561 24.4608C39.1487 25.3985 39.6502 26.6703 39.6502 27.9963V29.7513C39.9357 35.243 35.9694 37.9963 28.7205 37.9963C27.7369 37.9963 26.8119 37.9463 25.9472 37.8463C26.8623 36.9695 27.5641 35.875 27.9939 34.6547L28.7205 34.663C34.3829 34.663 36.6453 33.0913 36.4787 29.843V27.9963C36.4787 27.5543 36.3115 27.1304 36.014 26.8178C35.7165 26.5053 35.3129 26.3297 34.8921 26.3297H28.3445C28.0262 25.0385 27.3464 23.8773 26.3931 22.9963H34.8921H34.8906ZM22.1982 26.3297H6.34555C5.92478 26.3297 5.52123 26.5053 5.2237 26.8178C4.92617 27.1304 4.75901 27.5543 4.75901 27.9963V30.5797C4.75901 34.398 7.70363 36.333 14.4686 36.333C21.2082 36.333 23.9879 34.4413 23.7848 30.583V27.9963C23.7848 27.5543 23.6176 27.1304 23.3201 26.8178C23.0226 26.5053 22.619 26.3297 22.1982 26.3297ZM14.2782 2.99634C16.3825 2.99634 18.4007 3.87449 19.8886 5.4376C21.3766 7.00072 22.2125 9.12076 22.2125 11.3313C22.2125 13.5419 21.3766 15.662 19.8886 17.2251C18.4007 18.7882 16.3825 19.6663 14.2782 19.6663C12.1739 19.6663 10.1558 18.7882 8.66786 17.2251C7.1799 15.662 6.34397 13.5419 6.34397 11.3313C6.34397 9.12076 7.1799 7.00072 8.66786 5.4376C10.1558 3.87449 12.1739 2.99634 14.2782 2.99634ZM30.1436 6.32967C31.8267 6.32967 33.4409 7.03205 34.631 8.28229C35.8212 9.53254 36.4898 11.2282 36.4898 12.9963C36.4898 14.7644 35.8212 16.4601 34.631 17.7104C33.4409 18.9606 31.8267 19.663 30.1436 19.663C28.4605 19.663 26.8464 18.9606 25.6562 17.7104C24.4661 16.4601 23.7975 14.7644 23.7975 12.9963C23.7975 11.2282 24.4661 9.53254 25.6562 8.28229C26.8464 7.03205 28.4605 6.32967 30.1436 6.32967ZM14.2782 6.32967C13.653 6.32967 13.0339 6.45904 12.4562 6.7104C11.8786 6.96176 11.3537 7.33018 10.9116 7.79463C10.4694 8.25907 10.1187 8.81045 9.87947 9.41728C9.64019 10.0241 9.51704 10.6745 9.51704 11.3313C9.51704 11.9882 9.64019 12.6386 9.87947 13.2454C10.1187 13.8522 10.4694 14.4036 10.9116 14.8681C11.3537 15.3325 11.8786 15.7009 12.4562 15.9523C13.0339 16.2036 13.653 16.333 14.2782 16.333C15.541 16.333 16.752 15.806 17.6449 14.8681C18.5378 13.9301 19.0394 12.6579 19.0394 11.3313C19.0394 10.0048 18.5378 8.73262 17.6449 7.79463C16.752 6.85663 15.541 6.32967 14.2782 6.32967ZM30.1436 9.663C29.3021 9.663 28.495 10.0142 27.8999 10.6393C27.3049 11.2644 26.9706 12.1123 26.9706 12.9963C26.9706 13.8804 27.3049 14.7282 27.8999 15.3534C28.495 15.9785 29.3021 16.3297 30.1436 16.3297C30.9852 16.3297 31.7923 15.9785 32.3873 15.3534C32.9824 14.7282 33.3167 13.8804 33.3167 12.9963C33.3167 12.1123 32.9824 11.2644 32.3873 10.6393C31.7923 10.0142 30.9852 9.663 30.1436 9.663Z" fill="#C4C4C4"/>
</svg>
