<svg width="47" height="35" viewBox="0 0 47 35" fill="none" xmlns="http://www.w3.org/2000/svg">
<path d="M14.7413 16.2097C18.9757 16.2097 22.4083 12.6232 22.4083 8.1991C22.4083 3.77495 18.9757 0.188477 14.7413 0.188477C10.5069 0.188477 7.07422 3.77495 7.07422 8.1991C7.07422 12.6232 10.5069 16.2097 14.7413 16.2097Z" fill="black"/>
<path d="M34.4533 20.7875C37.478 20.7875 39.93 18.2256 39.93 15.0653C39.93 11.905 37.478 9.34314 34.4533 9.34314C31.4286 9.34314 28.9766 11.905 28.9766 15.0653C28.9766 18.2256 31.4286 20.7875 34.4533 20.7875Z" fill="black"/>
<path fill-rule="evenodd" clip-rule="evenodd" d="M46.4988 31.0865V33.3753C46.4988 33.6786 46.3838 33.9704 46.1779 34.1844C45.9731 34.3995 45.6938 34.5197 45.4035 34.5197H23.4976C23.2074 34.5197 22.9281 34.3995 22.7233 34.1844C22.5173 33.9704 22.4023 33.6786 22.4023 33.3753V31.0865C22.4023 26.6624 25.835 23.0759 30.0694 23.0759C32.8887 23.0759 36.0125 23.0759 38.8318 23.0759C43.0662 23.0759 46.4988 26.6624 46.4988 31.0865Z" fill="black"/>
<path fill-rule="evenodd" clip-rule="evenodd" d="M26.1879 21.6181C24.3971 19.6944 21.8922 18.4985 19.12 18.4985H10.3576C4.91294 18.4985 0.5 23.1092 0.5 28.7979V33.3754C0.5 34.0071 0.990692 34.5198 1.59529 34.5198H20.4037C20.2799 34.1559 20.2153 33.7691 20.2153 33.3754V31.0867C20.2153 26.8399 22.6753 23.1939 26.1879 21.6181Z" fill="black"/>
</svg>
