<!DOCTYPE svg PUBLIC "-//W3C//DTD SVG 1.1//EN" "http://www.w3.org/Graphics/SVG/1.1/DTD/svg11.dtd">
<!-- Uploaded to: SVG Repo, www.svgrepo.com, Transformed by: SVG Repo Mixer Tools -->
<svg width="800px" height="800px" viewBox="0 0 1024 1024" xmlns="http://www.w3.org/2000/svg" fill="#000000">
<g id="SVGRepo_bgCarrier" stroke-width="0"/>
<g id="SVGRepo_tracerCarrier" stroke-linecap="round" stroke-linejoin="round"/>
<g id="SVGRepo_iconCarrier">
<path fill="#007a33" d="M192 128v768h640V128H192zm-32-64h704a32 32 0 0 1 32 32v832a32 32 0 0 1-32 32H160a32 32 0 0 1-32-32V96a32 32 0 0 1 32-32zm160 448h384v64H320v-64zm0-192h192v64H320v-64zm0 384h384v64H320v-64z"/>
</g>
</svg>