<svg width="89" height="84" viewBox="0 0 89 84" fill="none" xmlns="http://www.w3.org/2000/svg">
<path d="M81.4987 12.4002L39.0987 51.1002L23.6988 34.3002C22.1988 32.7002 19.6987 32.6002 17.9987 34.0002C16.3987 35.5002 16.2988 38.0002 17.6988 39.7002L35.7987 59.5002C36.5987 60.4002 37.6987 60.8002 38.7987 60.8002C39.7987 60.8002 40.6987 60.5002 41.4987 59.8002L86.8988 18.3002C88.4987 16.8002 88.5987 14.3002 87.1987 12.6002C85.6987 11.0002 83.1987 10.9002 81.4987 12.4002Z" fill="black"/>
<path d="M42 84C65.2 84 84 65.2 84 42C84 40 83.9 38.1 83.6 36.2C83.3 34 81.3 32.5 79.1 32.8C76.9 33.1 75.4 35.1 75.7 37.3C75.9 38.9 76 40.5 76 42C76 60.7 60.7 76 42 76C23.3 76 8 60.7 8 42C8 23.3 23.3 8 42 8C50 8 57.8 10.8 63.9 16C65.6 17.4 68.1 17.2 69.5 15.5C70.9 13.8 70.7 11.3 69 9.9C61.5 3.5 51.9 0 42 0C18.8 0 0 18.8 0 42C0 65.2 18.8 84 42 84Z" fill="black"/>
</svg>
