<svg width="23" height="23" viewBox="0 0 23 23" fill="none" xmlns="http://www.w3.org/2000/svg">
<g clip-path="url(#clip0_1298_6093)">
<g clip-path="url(#clip1_1298_6093)">
<path d="M2.21387 11.2778C2.21387 8.72512 3.22793 6.27697 5.03296 4.47193C6.838 2.66689 9.28616 1.65283 11.8389 1.65283C14.3916 1.65283 16.8397 2.66689 18.6448 4.47193C20.4498 6.27697 21.4639 8.72512 21.4639 11.2778C21.4639 13.8305 20.4498 16.2787 18.6448 18.0837C16.8397 19.8888 14.3916 20.9028 11.8389 20.9028C9.28616 20.9028 6.838 19.8888 5.03296 18.0837C3.22793 16.2787 2.21387 13.8305 2.21387 11.2778Z" stroke="#333E48" stroke-width="1.5" stroke-linecap="round" stroke-linejoin="round"/>
<path fill-rule="evenodd" clip-rule="evenodd" d="M11.7721 11.4401C11.7292 11.3971 11.705 11.3388 11.705 11.2781C11.705 11.2173 11.7292 11.159 11.7721 11.116L14.7504 8.13734C15.1949 7.69276 15.2862 6.99792 14.8833 6.51576C14.562 6.13122 14.1788 5.74896 13.7869 5.47305C13.3249 5.14809 12.7319 5.30026 12.312 5.67792C10.8114 7.02588 8.82778 9.03659 7.82999 10.3575C7.40832 10.9162 7.40878 11.6399 7.82999 12.1982C8.82778 13.5195 10.8114 15.5298 12.312 16.8778C12.7319 17.2554 13.3249 17.4076 13.7869 17.0831C14.1788 16.8072 14.5615 16.4245 14.8833 16.0404C15.2862 15.5582 15.1949 14.8625 14.7504 14.4183L11.7721 11.4401Z" stroke="#333E48" stroke-width="1.5" stroke-linecap="round" stroke-linejoin="round"/>
</g>
</g>
<defs>
<clipPath id="clip0_1298_6093">
<rect width="22" height="22" fill="white" transform="matrix(-1 0 0 -1 22.8389 22.2778)"/>
</clipPath>
<clipPath id="clip1_1298_6093">
<rect width="22" height="22" fill="white" transform="translate(0.838867 0.277832)"/>
</clipPath>
</defs>
</svg>
