<svg width="101" height="44" viewBox="0 0 101 44" fill="none" xmlns="http://www.w3.org/2000/svg">
<path d="M0.339844 43.9597H100.34V0.777832H0.339844V43.9597ZM98.7065 42.353H1.97318V2.38445H98.7065V42.353Z" fill="white"/>
<path d="M46.9398 15.531L49.3732 17.9246C49.9398 18.4492 50.8398 18.4492 51.4065 17.9246L53.8398 15.531C54.3732 14.9408 54.3398 14.0556 53.7398 13.531C53.2065 13.0391 52.3398 13.0391 51.8065 13.531L50.3732 14.9408L48.9398 13.531C48.3398 13.0063 47.4398 13.0391 46.9065 13.6293C46.4398 14.1539 46.4398 15.0064 46.9398 15.531Z" fill="white"/>
<path d="M12.7062 17.467H8.70625C8.53958 17.467 8.40625 17.3359 8.40625 17.1719V14.8112C8.40625 14.6473 8.53958 14.5161 8.70625 14.5161H20.6396C20.8063 14.5161 20.9396 14.6473 20.9396 14.8112V17.1719C20.9396 17.3359 20.8063 17.467 20.6396 17.467H16.6729C16.5063 17.467 16.3729 17.5982 16.3729 17.7621V29.7625C16.3729 29.9265 16.2396 30.0576 16.0729 30.0576H13.2729C13.1063 30.0576 12.9729 29.9265 12.9729 29.7625V17.7621C13.0063 17.5982 12.8729 17.467 12.7062 17.467Z" fill="white"/>
<path d="M49.0725 20.1567H51.9725C52.1391 20.1567 52.2725 20.2879 52.2725 20.4518V29.7636C52.2725 29.9276 52.1391 30.0587 51.9725 30.0587H49.0725C48.9058 30.0587 48.7725 29.9276 48.7725 29.7636V20.4518C48.7725 20.2879 48.9058 20.1567 49.0725 20.1567Z" fill="white"/>
<path d="M70.2073 22.0246V21.9262C71.5073 21.4344 72.2073 20.0245 72.2073 18.6146C72.2073 15.6637 69.7406 14.5161 66.474 14.5161H60.9406C60.774 14.5161 60.6406 14.6473 60.6406 14.8112V29.7625C60.6406 29.9265 60.774 30.0576 60.9406 30.0576H66.9073C70.3406 30.0576 73.074 28.8445 73.074 25.6968C73.0406 23.5984 71.8073 22.4508 70.2073 22.0246ZM64.1073 17.8277C64.1073 17.6638 64.2406 17.5326 64.4073 17.5326H66.2073C67.874 17.5326 68.674 17.8933 68.674 19.1064C68.674 20.2212 67.9073 20.7458 66.174 20.7458H64.374C64.2073 20.7458 64.074 20.6147 64.074 20.4507V17.8277H64.1073ZM66.5073 27.1395H64.374C64.2073 27.1395 64.074 27.0083 64.074 26.8772V23.8279C64.074 23.664 64.2073 23.5328 64.374 23.5328H66.5073C68.474 23.5328 69.474 23.8935 69.474 25.2378C69.474 26.5821 68.474 27.1395 66.5073 27.1395Z" fill="white"/>
<path d="M80.807 14.5474H91.4736C91.6403 14.5474 91.7736 14.6785 91.7736 14.8425V17.2688C91.7736 17.4327 91.6403 17.5639 91.4736 17.5639H84.2403C84.0736 17.5639 83.9403 17.695 83.9403 17.8262V20.5148C83.9403 20.6787 84.0736 20.8099 84.2403 20.8099H90.707C90.8736 20.8099 91.007 20.941 91.007 21.105V23.4657C91.007 23.6296 90.8736 23.7608 90.707 23.7608H84.2403C84.0736 23.7608 83.9403 23.8919 83.9403 24.0559V26.7445C83.9403 26.9084 84.0736 27.0396 84.2403 27.0396H91.8736C92.0403 27.0396 92.1736 27.1708 92.1736 27.3347V29.7938C92.1736 29.9577 92.0403 30.0889 91.8736 30.0889H80.7736C80.607 30.0889 80.4736 29.9577 80.4736 29.7938V14.8097C80.507 14.6785 80.6403 14.5474 80.807 14.5474Z" fill="white"/>
<path d="M37.4053 29.9905C37.4386 30.0233 37.5053 30.0561 37.5386 30.0561H41.2053C41.3719 30.0561 41.5053 29.9249 41.5053 29.761C41.5053 29.6954 41.4719 29.6299 41.4386 29.5971L37.8386 24.81C37.7386 24.6789 37.7719 24.5149 37.9053 24.4166L37.9386 24.3838C39.5719 23.5313 40.6386 22.023 40.6386 19.7279C40.6386 15.7605 37.6719 14.5474 34.0719 14.5474H28.2053C28.0386 14.5474 27.9053 14.6785 27.9053 14.8425V29.7938C27.9053 29.9577 28.0386 30.0889 28.2053 30.0889H31.0719C31.2386 30.0889 31.3719 29.9577 31.3719 29.7938V25.269C31.3719 25.1051 31.5053 24.974 31.6719 24.974C31.6719 24.974 31.6719 24.974 31.7053 24.974H33.7053C33.8053 24.974 33.8719 25.0067 33.9386 25.1051L34.0386 25.2363L37.4053 29.9905ZM31.3386 21.9575V17.8262C31.3386 17.6622 31.4719 17.5311 31.6386 17.5311H33.9386C35.9719 17.5311 37.0386 18.0885 37.0386 19.7279C37.0386 20.8099 36.5719 21.564 35.6386 21.9247C35.1719 22.1214 34.6719 22.2198 34.1719 22.2198H33.9386H31.6719C31.4719 22.2198 31.3386 22.0886 31.3386 21.9575Z" fill="white"/>
</svg>
