<svg width="81" height="35" viewBox="0 0 81 35" fill="none" xmlns="http://www.w3.org/2000/svg">
<path d="M0.359375 34.1104H80.3594V0.110413H0.359375V34.1104ZM79.0527 32.8454H1.66604V1.37541H79.0527V32.8454Z" fill="#333133"/>
<path d="M37.6394 11.7266L39.586 13.6112C40.0394 14.0243 40.7594 14.0243 41.2127 13.6112L43.1594 11.7266C43.586 11.2619 43.5594 10.5649 43.0794 10.1518C42.6527 9.76457 41.9594 9.76457 41.5327 10.1518L40.386 11.2619L39.2394 10.1518C38.7594 9.73876 38.0394 9.76457 37.6127 10.2293C37.2394 10.6423 37.2394 11.3135 37.6394 11.7266Z" fill="#333133"/>
<path d="M10.2525 13.251H7.0525C6.91917 13.251 6.8125 13.1477 6.8125 13.0186V11.1598C6.8125 11.0308 6.91917 10.9275 7.0525 10.9275H16.5992C16.7325 10.9275 16.8392 11.0308 16.8392 11.1598V13.0186C16.8392 13.1477 16.7325 13.251 16.5992 13.251H13.4258C13.2925 13.251 13.1858 13.3542 13.1858 13.4833V22.932C13.1858 23.0611 13.0792 23.1644 12.9458 23.1644H10.7058C10.5725 23.1644 10.4658 23.0611 10.4658 22.932V13.4833C10.4925 13.3542 10.3858 13.251 10.2525 13.251Z" fill="#333133"/>
<path d="M39.3455 15.3687H41.6655C41.7988 15.3687 41.9055 15.472 41.9055 15.6011V22.9329C41.9055 23.062 41.7988 23.1652 41.6655 23.1652H39.3455C39.2121 23.1652 39.1055 23.062 39.1055 22.9329V15.6011C39.1055 15.472 39.2121 15.3687 39.3455 15.3687Z" fill="#333133"/>
<path d="M56.2529 16.8394V16.762C57.2929 16.3747 57.8529 15.2646 57.8529 14.1545C57.8529 11.8311 55.8796 10.9275 53.2663 10.9275H48.8396C48.7063 10.9275 48.5996 11.0308 48.5996 11.1599V22.9321C48.5996 23.0611 48.7063 23.1644 48.8396 23.1644H53.6129C56.3596 23.1644 58.5463 22.2092 58.5463 19.7308C58.5196 18.0786 57.5329 17.175 56.2529 16.8394ZM51.3729 13.5349C51.3729 13.4059 51.4796 13.3026 51.6129 13.3026H53.0529C54.3863 13.3026 55.0263 13.5866 55.0263 14.5418C55.0263 15.4195 54.4129 15.8326 53.0263 15.8326H51.5863C51.4529 15.8326 51.3463 15.7293 51.3463 15.6002V13.5349H51.3729ZM53.2929 20.8668H51.5863C51.4529 20.8668 51.3463 20.7635 51.3463 20.6602V18.2593C51.3463 18.1302 51.4529 18.027 51.5863 18.027H53.2929C54.8663 18.027 55.6663 18.311 55.6663 19.3694C55.6663 20.4279 54.8663 20.8668 53.2929 20.8668Z" fill="#333133"/>
<path d="M64.7315 10.9521H73.2648C73.3982 10.9521 73.5048 11.0554 73.5048 11.1844V13.0949C73.5048 13.2239 73.3982 13.3272 73.2648 13.3272H67.4782C67.3448 13.3272 67.2382 13.4305 67.2382 13.5337V15.6507C67.2382 15.7797 67.3448 15.883 67.4782 15.883H72.6515C72.7848 15.883 72.8915 15.9863 72.8915 16.1154V17.9741C72.8915 18.1032 72.7848 18.2065 72.6515 18.2065H67.4782C67.3448 18.2065 67.2382 18.3097 67.2382 18.4388V20.5557C67.2382 20.6848 67.3448 20.7881 67.4782 20.7881H73.5848C73.7182 20.7881 73.8248 20.8914 73.8248 21.0204V22.9567C73.8248 23.0857 73.7182 23.189 73.5848 23.189H64.7048C64.5715 23.189 64.4648 23.0857 64.4648 22.9567V11.1586C64.4915 11.0554 64.5982 10.9521 64.7315 10.9521Z" fill="#333133"/>
<path d="M30.0121 23.1116C30.0388 23.1374 30.0921 23.1632 30.1188 23.1632H33.0521C33.1854 23.1632 33.2921 23.0599 33.2921 22.9308C33.2921 22.8792 33.2654 22.8276 33.2388 22.8018L30.3588 19.0326C30.2788 18.9293 30.3054 18.8002 30.4121 18.7228L30.4388 18.697C31.7454 18.0258 32.5988 16.8382 32.5988 15.0311C32.5988 11.9073 30.2254 10.9521 27.3454 10.9521H22.6521C22.5188 10.9521 22.4121 11.0554 22.4121 11.1844V22.9567C22.4121 23.0857 22.5188 23.189 22.6521 23.189H24.9454C25.0788 23.189 25.1854 23.0857 25.1854 22.9567V19.394C25.1854 19.2649 25.2921 19.1617 25.4254 19.1617C25.4254 19.1617 25.4254 19.1617 25.4521 19.1617H27.0521C27.1321 19.1617 27.1854 19.1875 27.2388 19.2649L27.3188 19.3682L30.0121 23.1116ZM25.1588 16.7866V13.5337C25.1588 13.4046 25.2654 13.3014 25.3988 13.3014H27.2388C28.8654 13.3014 29.7188 13.7403 29.7188 15.0311C29.7188 15.883 29.3454 16.4768 28.5988 16.7608C28.2254 16.9157 27.8254 16.9931 27.4254 16.9931H27.2388H25.4254C25.2654 16.9931 25.1588 16.8898 25.1588 16.7866Z" fill="#333133"/>
</svg>
