<svg width="101" height="44" viewBox="0 0 101 44" fill="none" xmlns="http://www.w3.org/2000/svg">
<g clip-path="url(#clip0_1189_1146)">
<path d="M0.25 43.34H100.25V0.158203H0.25V43.34ZM98.6167 41.7334H1.88333V1.76482H98.6167V41.7334Z" fill="white"/>
<path d="M46.85 14.9153L49.2833 17.3088C49.85 17.8334 50.75 17.8334 51.3166 17.3088L53.75 14.9153C54.2833 14.3251 54.25 13.4398 53.65 12.9152C53.1166 12.4234 52.25 12.4234 51.7166 12.9152L50.2833 14.3251L48.85 12.9152C48.25 12.3906 47.35 12.4234 46.8166 13.0136C46.35 13.5382 46.35 14.3907 46.85 14.9153Z" fill="white"/>
<path d="M12.6169 16.8474H8.61689C8.45023 16.8474 8.31689 16.7163 8.31689 16.5523V14.1916C8.31689 14.0276 8.45023 13.8965 8.61689 13.8965H20.5502C20.7169 13.8965 20.8502 14.0276 20.8502 14.1916V16.5523C20.8502 16.7163 20.7169 16.8474 20.5502 16.8474H16.5836C16.4169 16.8474 16.2836 16.9786 16.2836 17.1425V29.1429C16.2836 29.3069 16.1502 29.438 15.9836 29.438H13.1836C13.0169 29.438 12.8836 29.3069 12.8836 29.1429V17.1425C12.9169 16.9786 12.7836 16.8474 12.6169 16.8474Z" fill="white"/>
<path d="M48.9836 19.5371H51.8836C52.0503 19.5371 52.1836 19.6683 52.1836 19.8322V29.144C52.1836 29.3079 52.0503 29.4391 51.8836 29.4391H48.9836C48.8169 29.4391 48.6836 29.3079 48.6836 29.144V19.8322C48.6836 19.6683 48.8169 19.5371 48.9836 19.5371Z" fill="white"/>
<path d="M70.117 21.4049V21.3066C71.417 20.8148 72.117 19.4049 72.117 17.995C72.117 15.0441 69.6503 13.8965 66.3836 13.8965H60.8503C60.6836 13.8965 60.5503 14.0276 60.5503 14.1916V29.1429C60.5503 29.3069 60.6836 29.438 60.8503 29.438H66.817C70.2503 29.438 72.9836 28.2248 72.9836 25.0772C72.9503 22.9788 71.717 21.8312 70.117 21.4049ZM64.017 17.2081C64.017 17.0441 64.1503 16.913 64.317 16.913H66.117C67.7836 16.913 68.5836 17.2737 68.5836 18.4868C68.5836 19.6016 67.817 20.1262 66.0836 20.1262H64.2836C64.117 20.1262 63.9836 19.9951 63.9836 19.8311V17.2081H64.017ZM66.417 26.5199H64.2836C64.117 26.5199 63.9836 26.3887 63.9836 26.2576V23.2083C63.9836 23.0443 64.117 22.9132 64.2836 22.9132H66.417C68.3836 22.9132 69.3836 23.2739 69.3836 24.6182C69.3836 25.9625 68.3836 26.5199 66.417 26.5199Z" fill="white"/>
<path d="M80.7174 13.9316H91.384C91.5507 13.9316 91.684 14.0628 91.684 14.2267V16.653C91.684 16.817 91.5507 16.9481 91.384 16.9481H84.1507C83.984 16.9481 83.8507 17.0793 83.8507 17.2104V19.8991C83.8507 20.063 83.984 20.1942 84.1507 20.1942H90.6174C90.784 20.1942 90.9174 20.3253 90.9174 20.4892V22.85C90.9174 23.0139 90.784 23.1451 90.6174 23.1451H84.1507C83.984 23.1451 83.8507 23.2762 83.8507 23.4402V26.1288C83.8507 26.2927 83.984 26.4239 84.1507 26.4239H91.784C91.9507 26.4239 92.084 26.555 92.084 26.719V29.1781C92.084 29.342 91.9507 29.4732 91.784 29.4732H80.684C80.5174 29.4732 80.384 29.342 80.384 29.1781V14.1939C80.4174 14.0628 80.5507 13.9316 80.7174 13.9316Z" fill="white"/>
<path d="M37.3163 29.3748C37.3496 29.4076 37.4163 29.4404 37.4496 29.4404H41.1163C41.283 29.4404 41.4163 29.3092 41.4163 29.1453C41.4163 29.0797 41.383 29.0141 41.3496 28.9813L37.7496 24.1943C37.6496 24.0631 37.683 23.8992 37.8163 23.8008L37.8496 23.768C39.483 22.9156 40.5496 21.4073 40.5496 19.1121C40.5496 15.1448 37.583 13.9316 33.983 13.9316H28.1163C27.9496 13.9316 27.8163 14.0628 27.8163 14.2267V29.1781C27.8163 29.342 27.9496 29.4732 28.1163 29.4732H30.983C31.1496 29.4732 31.283 29.342 31.283 29.1781V24.6533C31.283 24.4894 31.4163 24.3582 31.583 24.3582C31.583 24.3582 31.583 24.3582 31.6163 24.3582H33.6163C33.7163 24.3582 33.783 24.391 33.8496 24.4894L33.9496 24.6205L37.3163 29.3748ZM31.2496 21.3417V17.2104C31.2496 17.0465 31.383 16.9154 31.5496 16.9154H33.8496C35.883 16.9154 36.9496 17.4727 36.9496 19.1121C36.9496 20.1942 36.483 20.9483 35.5496 21.3089C35.083 21.5057 34.583 21.604 34.083 21.604H33.8496H31.583C31.383 21.604 31.2496 21.4729 31.2496 21.3417Z" fill="white"/>
</g>
<defs>
<clipPath id="clip0_1189_1146">
<rect width="100" height="43.1818" fill="white" transform="translate(0.25 0.158203)"/>
</clipPath>
</defs>
</svg>
