<svg width="24" height="24" viewBox="0 0 24 24" fill="none" xmlns="http://www.w3.org/2000/svg">
<path d="M7.28125 4V5.96875M16.4688 4V5.96875M4 17.7812V7.9375C4 7.41536 4.20742 6.9146 4.57663 6.54538C4.94585 6.17617 5.44661 5.96875 5.96875 5.96875H17.7812C18.3034 5.96875 18.8042 6.17617 19.1734 6.54538C19.5426 6.9146 19.75 7.41536 19.75 7.9375V17.7812M4 17.7812C4 18.3034 4.20742 18.8042 4.57663 19.1734C4.94585 19.5426 5.44661 19.75 5.96875 19.75H17.7812C18.3034 19.75 18.8042 19.5426 19.1734 19.1734C19.5426 18.8042 19.75 18.3034 19.75 17.7812M4 17.7812V11.2188C4 10.6966 4.20742 10.1958 4.57663 9.82663C4.94585 9.45742 5.44661 9.25 5.96875 9.25H17.7812C18.3034 9.25 18.8042 9.45742 19.1734 9.82663C19.5426 10.1958 19.75 10.6966 19.75 11.2188V17.7812" stroke="#747688" stroke-width="1.5" stroke-linecap="round" stroke-linejoin="round"/>
</svg>
