<svg width="19" height="19" viewBox="0 0 19 19" fill="none" xmlns="http://www.w3.org/2000/svg">
<path d="M12.8563 5.69459C12.6696 5.88134 12.4828 6.06808 12.2942 6.25674C11.8444 6.70646 11.3966 7.15428 10.9469 7.604C10.4057 8.14519 9.86643 8.68448 9.32524 9.22567C8.85647 9.69445 8.38769 10.1632 7.92081 10.6301C7.69595 10.855 7.4749 11.0874 7.24433 11.3066C7.2348 11.3161 7.22527 11.3237 7.21574 11.3333C7.26719 11.2932 7.31864 11.2532 7.37009 11.2132C7.35485 11.2246 7.3396 11.2323 7.32436 11.2399C7.38534 11.2151 7.44632 11.1884 7.5073 11.1637C7.49015 11.1694 7.4749 11.1751 7.45585 11.177C7.52254 11.1675 7.59114 11.1579 7.65784 11.1503C7.64069 11.1522 7.62354 11.1522 7.60639 11.1503C7.67309 11.1599 7.74169 11.1694 7.80838 11.177C7.79123 11.1751 7.77408 11.1713 7.75693 11.1637C7.81791 11.1884 7.87889 11.2151 7.93987 11.2399C7.92272 11.2323 7.90747 11.2246 7.89414 11.2132C7.94559 11.2532 7.99704 11.2932 8.04849 11.3333C7.94749 11.2456 7.85602 11.1427 7.76074 11.0493C7.5416 10.8302 7.32436 10.6129 7.10522 10.3938C6.61166 9.90025 6.12002 9.40861 5.62647 8.91506C5.51213 8.80072 5.3997 8.68829 5.28536 8.57395C5.00334 8.29192 4.48501 8.27096 4.20679 8.57395C3.92667 8.87885 3.90571 9.35144 4.20679 9.65252C4.80896 10.2547 5.41114 10.8569 6.01521 11.4609C6.30486 11.7506 6.59642 12.0421 6.88607 12.3318C6.90703 12.3528 6.92609 12.3737 6.94705 12.3928C7.33198 12.7625 7.92844 12.7625 8.31527 12.3947C8.34576 12.3661 8.37625 12.3337 8.40484 12.3051C8.95746 11.7525 9.51199 11.198 10.0646 10.6453C10.8726 9.83737 11.6787 9.0313 12.4866 8.22332C12.963 7.74692 13.4433 7.27624 13.9139 6.79602C13.9216 6.7884 13.9292 6.78078 13.9368 6.77316C14.2188 6.49113 14.2398 5.9728 13.9368 5.69459C13.63 5.41446 13.1574 5.3935 12.8563 5.69459Z" fill="white"/>
<path d="M16.6161 9.07333C16.6161 9.44493 16.5913 9.81652 16.5418 10.1862C16.5513 10.1195 16.5608 10.0509 16.5684 9.98421C16.4713 10.7083 16.2788 11.4153 15.9968 12.088C16.0215 12.027 16.0482 11.966 16.073 11.9051C15.7929 12.5701 15.427 13.1952 14.9868 13.7668C15.0268 13.7154 15.0668 13.6639 15.1068 13.6125C14.6724 14.1727 14.1693 14.6758 13.609 15.1103C13.6605 15.0703 13.7119 15.0302 13.7634 14.9902C13.1917 15.4304 12.5667 15.7963 11.9016 16.0764C11.9626 16.0516 12.0236 16.025 12.0846 16.0002C11.4119 16.2822 10.703 16.4747 9.98077 16.5719C10.0475 16.5624 10.1161 16.5528 10.1828 16.5452C9.4453 16.6424 8.6964 16.6424 7.95893 16.5452C8.02563 16.5547 8.09423 16.5643 8.16092 16.5719C7.43679 16.4747 6.72982 16.2822 6.05714 16.0002C6.11812 16.025 6.1791 16.0516 6.24008 16.0764C5.57502 15.7963 4.94998 15.4304 4.3783 14.9902C4.42975 15.0302 4.4812 15.0703 4.53266 15.1103C3.97241 14.6758 3.46933 14.1727 3.03485 13.6125C3.07487 13.6639 3.11489 13.7154 3.15491 13.7668C2.71471 13.1952 2.34884 12.5701 2.06871 11.9051C2.09348 11.966 2.12016 12.027 2.14494 12.088C1.86291 11.4153 1.67044 10.7064 1.57326 9.98421C1.58278 10.0509 1.59231 10.1195 1.59993 10.1862C1.50275 9.44874 1.50275 8.69984 1.59993 7.96237C1.59041 8.02906 1.58088 8.09766 1.57326 8.16436C1.67044 7.44023 1.86291 6.73325 2.14494 6.06058C2.12016 6.12155 2.09348 6.18253 2.06871 6.24351C2.34884 5.57846 2.71471 4.95342 3.15491 4.38174C3.11489 4.43319 3.07487 4.48464 3.03485 4.53609C3.46933 3.97585 3.97241 3.47277 4.53266 3.03829C4.4812 3.07831 4.42975 3.11832 4.3783 3.15834C4.94998 2.71815 5.57502 2.35227 6.24008 2.07215C6.1791 2.09692 6.11812 2.1236 6.05714 2.14837C6.72982 1.86634 7.4387 1.67388 8.16092 1.57669C8.09423 1.58622 8.02563 1.59575 7.95893 1.60337C8.6964 1.50618 9.4453 1.50618 10.1828 1.60337C10.1161 1.59384 10.0475 1.58431 9.98077 1.57669C10.7049 1.67388 11.4119 1.86634 12.0846 2.14837C12.0236 2.1236 11.9626 2.09692 11.9016 2.07215C12.5667 2.35227 13.1917 2.71815 13.7634 3.15834C13.7119 3.11832 13.6605 3.07831 13.609 3.03829C14.1693 3.47277 14.6724 3.97585 15.1068 4.53609C15.0668 4.48464 15.0268 4.43319 14.9868 4.38174C15.427 4.95342 15.7929 5.57846 16.073 6.24351C16.0482 6.18253 16.0215 6.12155 15.9968 6.06058C16.2788 6.73325 16.4713 7.44214 16.5684 8.16436C16.5589 8.09766 16.5494 8.02906 16.5418 7.96237C16.5913 8.33015 16.6161 8.70174 16.6161 9.07333C16.6161 9.4716 16.9667 9.85463 17.3783 9.83557C17.7899 9.81652 18.1406 9.50019 18.1406 9.07333C18.1387 8.13768 17.9976 7.18869 17.708 6.29878C17.4279 5.43744 17.0239 4.61041 16.4979 3.87104C16.2216 3.48229 15.9205 3.1088 15.589 2.76579C15.2574 2.42087 14.8934 2.11407 14.5142 1.82251C13.7939 1.26989 12.9878 0.846846 12.136 0.534327C11.2613 0.21228 10.3238 0.0426815 9.39385 0.00647503C8.4582 -0.0297314 7.50349 0.0865103 6.60214 0.339956C5.73128 0.585778 4.88329 0.966899 4.12676 1.46617C3.37786 1.95972 2.68994 2.55617 2.12016 3.24791C1.81527 3.61569 1.53324 4.00252 1.28551 4.41413C1.03588 4.82956 0.831976 5.26403 0.649038 5.70994C0.294596 6.57128 0.0983188 7.48978 0.0259059 8.4159C-0.0484126 9.35917 0.0392451 10.3215 0.262201 11.24C0.475628 12.1223 0.833881 12.9836 1.30457 13.7592C1.76953 14.5234 2.35074 15.2322 3.01961 15.8268C3.69419 16.4251 4.44881 16.9339 5.27203 17.3055C5.71604 17.5056 6.16957 17.6809 6.63835 17.8105C7.11856 17.9439 7.60639 18.0278 8.10185 18.0849C9.04322 18.1935 9.99792 18.1364 10.926 17.9496C11.8197 17.7686 12.6924 17.437 13.489 16.9949C14.2703 16.5604 14.9963 15.9983 15.6156 15.3504C16.235 14.7025 16.7704 13.9574 17.1706 13.1532C17.5803 12.33 17.8795 11.4496 18.0186 10.5406C18.0929 10.0528 18.1406 9.56307 18.1425 9.06952C18.1425 8.67125 17.7918 8.28822 17.3802 8.30728C16.9648 8.33015 16.6161 8.64648 16.6161 9.07333Z" fill="white"/>
</svg>
