<svg width="180" height="72" viewBox="0 0 180 72" fill="none" xmlns="http://www.w3.org/2000/svg">
<rect x="45" width="88" height="72" rx="10" fill="#9CABC2" fill-opacity="0.35"/>
<rect x="46" y="1" width="86" height="70" rx="9" stroke="#9CABC2" stroke-opacity="0.35" strokeWidth="2"/>
<path d="M69.763 35.4922H66.9633C66.9122 35.13 66.8078 34.8082 66.6501 34.527C66.4924 34.2415 66.29 33.9986 66.0429 33.7983C65.7957 33.598 65.5102 33.4446 65.1863 33.3381C64.8667 33.2315 64.5194 33.1783 64.1444 33.1783C63.4669 33.1783 62.8767 33.3466 62.3738 33.6832C61.871 34.0156 61.4811 34.5014 61.2041 35.1406C60.9271 35.7756 60.7886 36.5469 60.7886 37.4545C60.7886 38.3878 60.9271 39.1719 61.2041 39.8068C61.4853 40.4418 61.8774 40.9212 62.3802 41.245C62.8831 41.5689 63.4647 41.7308 64.1253 41.7308C64.496 41.7308 64.839 41.6818 65.1544 41.5838C65.474 41.4858 65.7574 41.343 66.0045 41.1555C66.2517 40.9638 66.4562 40.7315 66.6182 40.4588C66.7843 40.1861 66.8994 39.875 66.9633 39.5256L69.763 39.5384C69.6906 40.1392 69.5095 40.7188 69.2197 41.277C68.9342 41.831 68.5486 42.3274 68.0628 42.7663C67.5812 43.201 67.0059 43.5462 66.3369 43.8018C65.6721 44.0533 64.92 44.179 64.0805 44.179C62.9129 44.179 61.8689 43.9148 60.9484 43.3864C60.0322 42.858 59.3078 42.093 58.7751 41.0916C58.2467 40.0902 57.9825 38.8778 57.9825 37.4545C57.9825 36.027 58.251 34.8125 58.7879 33.8111C59.3248 32.8097 60.0535 32.0469 60.974 31.5227C61.8944 30.9943 62.9299 30.7301 64.0805 30.7301C64.839 30.7301 65.5422 30.8366 66.1899 31.0497C66.8419 31.2628 67.4193 31.5739 67.9221 31.983C68.425 32.3878 68.8341 32.8842 69.1494 33.4723C69.469 34.0604 69.6736 34.7337 69.763 35.4922ZM77.4718 36.3743V38.5348H71.5016V36.3743H77.4718ZM78.4578 33.1911V30.9091H89.2092V33.1911H85.2014V44H82.4656V33.1911H78.4578ZM89.5671 44V34.1818H92.207V35.8949H92.3093C92.4883 35.2855 92.7887 34.8253 93.2106 34.5142C93.6325 34.1989 94.1183 34.0412 94.668 34.0412C94.8043 34.0412 94.9513 34.0497 95.109 34.0668C95.2667 34.0838 95.4052 34.1072 95.5245 34.1371V36.5533C95.3967 36.5149 95.2198 36.4808 94.994 36.451C94.7681 36.4212 94.5614 36.4062 94.3739 36.4062C93.9734 36.4062 93.6154 36.4936 93.3001 36.6683C92.989 36.8388 92.7418 37.0774 92.5586 37.3842C92.3796 37.6911 92.2901 38.0447 92.2901 38.4453V44H89.5671ZM96.5904 44V34.1818H99.3134V44H96.5904ZM97.9583 32.9162C97.5534 32.9162 97.2061 32.782 96.9163 32.5135C96.6308 32.2408 96.4881 31.9148 96.4881 31.5355C96.4881 31.1605 96.6308 30.8388 96.9163 30.5703C97.2061 30.2976 97.5534 30.1612 97.9583 30.1612C98.3631 30.1612 98.7083 30.2976 98.9938 30.5703C99.2835 30.8388 99.4284 31.1605 99.4284 31.5355C99.4284 31.9148 99.2835 32.2408 98.9938 32.5135C98.7083 32.782 98.3631 32.9162 97.9583 32.9162ZM101.204 44V30.9091H103.927V35.831H104.01C104.129 35.5668 104.302 35.2983 104.528 35.0256C104.758 34.7486 105.056 34.5185 105.423 34.3352C105.793 34.1477 106.254 34.054 106.803 34.054C107.519 34.054 108.18 34.2415 108.785 34.6165C109.39 34.9872 109.874 35.5476 110.236 36.2976C110.598 37.0433 110.779 37.9787 110.779 39.1037C110.779 40.1989 110.602 41.1236 110.249 41.8778C109.899 42.6278 109.422 43.1967 108.817 43.5845C108.216 43.968 107.543 44.1598 106.797 44.1598C106.268 44.1598 105.819 44.0724 105.448 43.8977C105.082 43.723 104.781 43.5036 104.547 43.2393C104.312 42.9709 104.133 42.7003 104.01 42.4276H103.888V44H101.204ZM103.869 39.0909C103.869 39.6747 103.95 40.1839 104.112 40.6186C104.274 41.0533 104.508 41.392 104.815 41.6349C105.122 41.8736 105.495 41.9929 105.934 41.9929C106.377 41.9929 106.752 41.8714 107.059 41.6286C107.366 41.3814 107.598 41.0405 107.756 40.6058C107.918 40.1669 107.999 39.6619 107.999 39.0909C107.999 38.5241 107.92 38.0256 107.762 37.5952C107.604 37.1648 107.372 36.8281 107.065 36.5852C106.758 36.3423 106.381 36.2209 105.934 36.2209C105.491 36.2209 105.116 36.3381 104.809 36.5724C104.506 36.8068 104.274 37.1392 104.112 37.5696C103.95 38 103.869 38.5071 103.869 39.0909ZM116.728 44.1918C115.718 44.1918 114.849 43.9872 114.12 43.5781C113.396 43.1648 112.838 42.581 112.446 41.8267C112.054 41.0682 111.858 40.1712 111.858 39.1357C111.858 38.1257 112.054 37.2393 112.446 36.4766C112.838 35.7138 113.39 35.1193 114.101 34.6932C114.817 34.267 115.657 34.054 116.62 34.054C117.268 34.054 117.87 34.1584 118.429 34.3672C118.991 34.5717 119.481 34.8807 119.899 35.294C120.321 35.7074 120.649 36.2273 120.883 36.8537C121.118 37.4759 121.235 38.2045 121.235 39.0398V39.7876H112.944V38.1001H118.672C118.672 37.7081 118.586 37.3608 118.416 37.0582C118.245 36.7557 118.009 36.5192 117.706 36.3487C117.408 36.174 117.061 36.0866 116.665 36.0866C116.251 36.0866 115.885 36.1825 115.565 36.3743C115.25 36.5618 115.003 36.8153 114.824 37.1349C114.645 37.4503 114.553 37.8018 114.549 38.1896V39.794C114.549 40.2798 114.638 40.6996 114.817 41.0533C115 41.407 115.258 41.6797 115.591 41.8714C115.923 42.0632 116.317 42.1591 116.773 42.1591C117.076 42.1591 117.353 42.1165 117.604 42.0312C117.856 41.946 118.071 41.8182 118.25 41.6477C118.429 41.4773 118.565 41.2685 118.659 41.0213L121.177 41.1875C121.049 41.7926 120.787 42.321 120.391 42.7727C119.999 43.2202 119.492 43.5696 118.87 43.821C118.252 44.0682 117.538 44.1918 116.728 44.1918Z" fill="#8897AF"/>
</svg>
