<svg width="15" height="11" viewBox="0 0 15 11" fill="none" xmlns="http://www.w3.org/2000/svg">
<path d="M12.4843 11H2.1846C1.60543 10.9994 1.05015 10.7691 0.640593 10.3596C0.231035 9.95007 0.000654143 9.39481 0 8.81564V2.18436C0.000758559 1.60522 0.231173 1.05002 0.640708 0.640534C1.05024 0.231045 1.60547 0.000693048 2.1846 0H12.4843C13.0635 0.000424029 13.6189 0.230689 14.0285 0.640236C14.4381 1.04978 14.6684 1.60514 14.6689 2.18436V8.81564C14.6683 9.39481 14.4379 9.95007 14.0283 10.3596C13.6188 10.7691 13.0635 10.9994 12.4843 11ZM1.06444 1.76496C1.01395 1.89902 0.98819 2.04112 0.988422 2.18437V8.81564C0.988855 9.13274 1.11503 9.43672 1.33927 9.66091C1.56351 9.88511 1.86751 10.0112 2.18461 10.0116H12.4843C12.8014 10.0112 13.1054 9.88511 13.3296 9.66091C13.5539 9.43672 13.6801 9.13274 13.6805 8.81564V2.18436C13.6807 2.04096 13.6549 1.8987 13.6045 1.76447L9.86872 5.5L12.7657 8.39672C12.8584 8.48939 12.9104 8.61508 12.9104 8.74614C12.9104 8.8772 12.8584 9.00289 12.7657 9.09556C12.673 9.18823 12.5473 9.2403 12.4163 9.24029C12.2852 9.24029 12.1595 9.18823 12.0668 9.09556L9.16988 6.19884C8.95842 6.48702 8.68206 6.72136 8.36319 6.88288C8.04432 7.0444 7.6919 7.12857 7.33446 7.12857C6.97701 7.12857 6.62459 7.0444 6.30572 6.88288C5.98685 6.72136 5.7105 6.48702 5.49903 6.19884L2.60208 9.09556C2.5094 9.18823 2.38371 9.24029 2.25266 9.24029C2.1216 9.2403 1.99591 9.18823 1.90323 9.09556C1.81056 9.00289 1.7585 8.8772 1.7585 8.74614C1.7585 8.61508 1.81056 8.48939 1.90323 8.39672L4.80019 5.5C3.78883 4.48852 1.97423 2.67455 1.06444 1.76496ZM1.76255 1.06516C2.62221 1.92734 6.18984 5.48868 6.49251 5.79488C6.71651 6.01758 7.01962 6.14247 7.33548 6.1422C7.65134 6.14193 7.95423 6.01652 8.17785 5.79344L8.81902 5.15203C8.82285 5.15104 12.9023 1.06672 12.9061 1.06516C12.7713 1.01422 12.6284 0.988217 12.4843 0.988422H2.1846C2.04043 0.988215 1.89743 1.01422 1.76255 1.06516Z" fill="black"/>
</svg>
