<svg width="24" height="24" viewBox="0 0 24 24" fill="none" xmlns="http://www.w3.org/2000/svg">
<path fill-rule="evenodd" clip-rule="evenodd" d="M23.3242 12.1797C23.3242 11.3643 23.251 10.5802 23.1151 9.82745H12.2842V14.2759H18.4733C18.2067 15.7134 17.3965 16.9313 16.1785 17.7468V20.6322H19.8951C22.0696 18.6302 23.3242 15.682 23.3242 12.1797Z" fill="#4285F4"/>
<path fill-rule="evenodd" clip-rule="evenodd" d="M12.2841 23.4181C15.3891 23.4181 17.9923 22.3884 19.8951 20.632L16.1785 17.7466C15.1487 18.4366 13.8314 18.8443 12.2841 18.8443C9.28892 18.8443 6.75369 16.8213 5.84937 14.1031H2.00732V17.0827C3.8996 20.8411 7.78869 23.4181 12.2841 23.4181Z" fill="#34A853"/>
<path fill-rule="evenodd" clip-rule="evenodd" d="M5.84941 14.1034C5.61941 13.4134 5.48873 12.6763 5.48873 11.9184C5.48873 11.1604 5.61941 10.4234 5.84941 9.73339V6.75385H2.00736C1.2285 8.30635 0.78418 10.0627 0.78418 11.9184C0.78418 13.7741 1.2285 15.5304 2.00736 17.0829L5.84941 14.1034Z" fill="#FBBC05"/>
<path fill-rule="evenodd" clip-rule="evenodd" d="M12.2841 4.9922C13.9726 4.9922 15.4885 5.57243 16.6803 6.71197L19.9787 3.41356C17.9871 1.55788 15.3839 0.418335 12.2841 0.418335C7.78869 0.418335 3.8996 2.99538 2.00732 6.75379L5.84937 9.73333C6.75369 7.01515 9.28892 4.9922 12.2841 4.9922Z" fill="#EA4335"/>
</svg>
