<svg width="119" height="93" viewBox="0 0 119 93" fill="none" xmlns="http://www.w3.org/2000/svg">
<path d="M113.906 0H4.21875C1.88525 0 0 1.88525 0 4.21875V88.5938C0 90.9272 1.88525 92.8125 4.21875 92.8125H113.906C116.24 92.8125 118.125 90.9272 118.125 88.5938V4.21875C118.125 1.88525 116.24 0 113.906 0ZM36.123 18.9844C40.7769 18.9844 44.5605 22.7681 44.5605 27.4219C44.5605 32.0757 40.7769 35.8594 36.123 35.8594C31.4692 35.8594 27.6855 32.0757 27.6855 27.4219C27.6855 22.7681 31.4692 18.9844 36.123 18.9844ZM103.874 76.6099C103.681 76.7712 103.439 76.8599 103.188 76.8604H14.9238C14.3438 76.8604 13.8691 76.3857 13.8691 75.8057C13.8691 75.5552 13.9614 75.3179 14.1196 75.1201L36.5713 48.4893C36.9404 48.041 37.6128 47.9883 38.061 48.3574C38.1006 48.397 38.1533 48.4365 38.1929 48.4893L51.2974 64.0459L72.1406 39.3267C72.5098 38.8784 73.1821 38.8257 73.6304 39.1948C73.6699 39.2344 73.7227 39.2739 73.7622 39.3267L104.032 75.1333C104.375 75.5684 104.322 76.2407 103.874 76.6099Z" fill="#FCFCFD"/>
</svg>
