<svg width="33" height="33" viewBox="0 0 33 33" fill="none" xmlns="http://www.w3.org/2000/svg">
<path id="Vector" d="M9.78 0.333496H23.22C28.34 0.333496 32.5 4.4935 32.5 9.6135V23.0535C32.5 25.5147 31.5223 27.8751 29.782 29.6154C28.0416 31.3558 25.6812 32.3335 23.22 32.3335H9.78C4.66 32.3335 0.5 28.1735 0.5 23.0535V9.6135C0.5 7.15229 1.47771 4.79188 3.21805 3.05155C4.95839 1.31121 7.31879 0.333496 9.78 0.333496ZM9.46 3.5335C7.93235 3.5335 6.46727 4.14035 5.38707 5.22056C4.30686 6.30077 3.7 7.76585 3.7 9.2935V23.3735C3.7 26.5575 6.276 29.1335 9.46 29.1335H23.54C25.0676 29.1335 26.5327 28.5266 27.6129 27.4464C28.6931 26.3662 29.3 24.9011 29.3 23.3735V9.2935C29.3 6.1095 26.724 3.5335 23.54 3.5335H9.46ZM24.9 5.9335C25.4304 5.9335 25.9391 6.14421 26.3142 6.51928C26.6893 6.89436 26.9 7.40306 26.9 7.9335C26.9 8.46393 26.6893 8.97264 26.3142 9.34771C25.9391 9.72278 25.4304 9.9335 24.9 9.9335C24.3696 9.9335 23.8609 9.72278 23.4858 9.34771C23.1107 8.97264 22.9 8.46393 22.9 7.9335C22.9 7.40306 23.1107 6.89436 23.4858 6.51928C23.8609 6.14421 24.3696 5.9335 24.9 5.9335ZM16.5 8.3335C18.6217 8.3335 20.6566 9.17635 22.1569 10.6766C23.6571 12.1769 24.5 14.2118 24.5 16.3335C24.5 18.4552 23.6571 20.4901 22.1569 21.9904C20.6566 23.4906 18.6217 24.3335 16.5 24.3335C14.3783 24.3335 12.3434 23.4906 10.8431 21.9904C9.34285 20.4901 8.5 18.4552 8.5 16.3335C8.5 14.2118 9.34285 12.1769 10.8431 10.6766C12.3434 9.17635 14.3783 8.3335 16.5 8.3335ZM16.5 11.5335C15.227 11.5335 14.0061 12.0392 13.1059 12.9394C12.2057 13.8396 11.7 15.0605 11.7 16.3335C11.7 17.6065 12.2057 18.8274 13.1059 19.7276C14.0061 20.6278 15.227 21.1335 16.5 21.1335C17.773 21.1335 18.9939 20.6278 19.8941 19.7276C20.7943 18.8274 21.3 17.6065 21.3 16.3335C21.3 15.0605 20.7943 13.8396 19.8941 12.9394C18.9939 12.0392 17.773 11.5335 16.5 11.5335Z" fill="#6CDBD6"/>
</svg>
