<svg width="24" height="24" viewBox="0 0 24 24" fill="none" xmlns="http://www.w3.org/2000/svg">
<path d="M5.89435 7.42871H1.24286C1.03642 7.42871 0.869141 7.59606 0.869141 7.80243V22.7457C0.869141 22.9521 1.03642 23.1194 1.24286 23.1194H5.89435C6.10079 23.1194 6.26806 22.9521 6.26806 22.7457V7.80243C6.26806 7.59606 6.10079 7.42871 5.89435 7.42871Z" fill="#555555"/>
<path d="M3.5694 0C1.87692 0 0.5 1.37542 0.5 3.06604C0.5 4.7574 1.87692 6.13335 3.5694 6.13335C5.26054 6.13335 6.63634 4.75733 6.63634 3.06604C6.63641 1.37542 5.26054 0 3.5694 0Z" fill="#555555"/>
<path d="M17.7245 7.05762C15.8563 7.05762 14.4752 7.86073 13.6376 8.77327V7.80273C13.6376 7.59637 13.4703 7.42902 13.2639 7.42902H8.80926C8.60282 7.42902 8.43555 7.59637 8.43555 7.80273V22.746C8.43555 22.9524 8.60282 23.1197 8.80926 23.1197H13.4506C13.657 23.1197 13.8243 22.9524 13.8243 22.746V15.3525C13.8243 12.8611 14.501 11.8905 16.2378 11.8905C18.1292 11.8905 18.2795 13.4465 18.2795 15.4807V22.7461C18.2795 22.9525 18.4468 23.1198 18.6532 23.1198H23.2963C23.5027 23.1198 23.67 22.9525 23.67 22.7461V14.5494C23.67 10.8448 22.9636 7.05762 17.7245 7.05762Z" fill="#555555"/>
</svg>
