<svg width="24" height="24" viewBox="0 0 24 24" fill="none" xmlns="http://www.w3.org/2000/svg">
<path d="M0.895508 2.06631C0.895508 1.15695 1.65681 0.418823 2.59528 0.418823H22.1948C23.1336 0.418823 23.8945 1.15695 23.8945 2.06631V21.7706C23.8945 22.6803 23.1336 23.4178 22.1948 23.4178H2.59528C1.6569 23.4178 0.895508 22.6804 0.895508 21.7709V2.06604V2.06631Z" fill="#0A66C2"/>
<path d="M7.88468 19.6658V9.31158H4.44309V19.6658H7.88504H7.88468ZM6.16461 7.89813C7.36451 7.89813 8.11153 7.10304 8.11153 6.10941C8.08907 5.09314 7.36451 4.32025 6.18743 4.32025C5.00953 4.32025 4.24023 5.09314 4.24023 6.10932C4.24023 7.10295 4.98698 7.89804 6.14206 7.89804H6.16434L6.16461 7.89813ZM9.78965 19.6658H13.231V13.8842C13.231 13.5751 13.2534 13.2653 13.3443 13.0445C13.593 12.426 14.1593 11.7857 15.1102 11.7857C16.3552 11.7857 16.8536 12.7351 16.8536 14.1272V19.6658H20.2948V13.729C20.2948 10.5488 18.5972 9.06883 16.333 9.06883C14.4766 9.06883 13.6613 10.1064 13.2083 10.8131H13.2312V9.31194H9.78983C9.83475 10.2833 9.78956 19.6662 9.78956 19.6662L9.78965 19.6658Z" fill="white"/>
</svg>
