<svg width="175" height="242" viewBox="0 0 175 242" fill="none" xmlns="http://www.w3.org/2000/svg">
<circle cx="88" cy="87" r="61" fill="#C32C2A"/>
<path fill-rule="evenodd" clip-rule="evenodd" d="M84.4397 48.9081L46.4919 79.1788C42.8195 82.8113 46.4919 90.0763 51.3884 88.8655L86.8879 58.5948L123.612 88.8655C128.508 90.0763 132.18 82.8113 128.508 79.1788L117.491 70.703V58.5948H107.698V63.4381L90.5603 48.9081C89.3362 47.6973 85.6638 47.6973 84.4397 48.9081Z" fill="white"/>
<path fill-rule="evenodd" clip-rule="evenodd" d="M121 91.8654V110.038C121 118.519 113.691 127 105.164 127H69.8364C61.3091 127 54 118.519 54 110.038V91.8654L86.8909 64L121 91.8654ZM92.9818 91.8654H89.3273V100.346H96.6364V96.7115C96.6364 94.2885 95.4182 91.8654 92.9818 91.8654ZM85.6727 91.8654H82.0182C79.5818 91.8654 78.3636 94.2885 78.3636 96.7115V100.346H85.6727V91.8654ZM78.3636 102.769V106.404C78.3636 108.827 79.5818 111.25 82.0182 111.25H85.6727V102.769H78.3636ZM89.3273 111.25H92.9818C95.4182 111.25 96.6364 108.827 96.6364 106.404V102.769H89.3273V111.25Z" fill="white"/>
<path fill-rule="evenodd" clip-rule="evenodd" d="M88 242C62 202 0 134 0 88C0 39 39 0 88 0C136 0 175 39 175 88C175 134 113 202 88 242ZM88 31C119 31 144 56 144 87C144 118 119 144 88 144C56 144 31 118 31 87C31 56 56 31 88 31Z" fill="#C42C2A"/>
</svg>
