<svg width="21" height="21" viewBox="0 0 21 21" fill="none" xmlns="http://www.w3.org/2000/svg">
<g clip-path="url(#clip0_2160_4100)">
<path d="M16.6933 7.1725C16.4112 3.885 13.6608 1.36041 10.3616 1.36041C7.06248 1.36041 4.31164 3.88541 4.02998 7.1725L3.83039 9.50166C3.74127 10.5411 3.40946 11.5451 2.86164 12.4329L2.24831 13.4262C1.63289 14.4233 1.96873 15.4537 3.13039 15.6083C4.45873 15.7854 6.67706 15.9437 10.3616 15.9437C14.0462 15.9437 16.2641 15.7854 17.5929 15.6087C18.7546 15.4542 19.0904 14.4237 18.475 13.4267L17.8616 12.4333C17.3137 11.5452 16.9819 10.541 16.8929 9.50125L16.6929 7.17208L16.6933 7.1725Z" stroke="#333E48" stroke-width="1.5" stroke-linecap="round" stroke-linejoin="round"/>
<path d="M7.05078 15.8931C7.14144 16.7085 7.52955 17.4618 8.14085 18.0089C8.75216 18.556 9.54374 18.8585 10.3641 18.8585C11.1845 18.8585 11.9761 18.556 12.5874 18.0089C13.1987 17.4618 13.5868 16.7085 13.6774 15.8931" stroke="#333E48" stroke-width="1.5" stroke-linecap="round" stroke-linejoin="round"/>
</g>
<defs>
<clipPath id="clip0_2160_4100">
<rect width="20" height="20" fill="white" transform="translate(0.359375 0.110413)"/>
</clipPath>
</defs>
</svg>
