<svg width="21" height="21" viewBox="0 0 21 21" fill="none" xmlns="http://www.w3.org/2000/svg">
<g clip-path="url(#clip0_1547_10037)">
<path d="M7.91895 15.6944C7.91895 14.2185 6.89478 13.1944 5.41895 13.1944C3.94311 13.1944 2.91895 14.2185 2.91895 15.6944C2.91895 16.7644 3.01228 17.3669 3.0852 17.6735C3.1277 17.8531 3.2602 17.986 3.43936 18.0281C3.74645 18.101 4.34895 18.1944 5.41895 18.1944C6.89478 18.1944 7.91895 17.1702 7.91895 15.6944Z" stroke="#333E48" stroke-width="1.5" stroke-linecap="round" stroke-linejoin="round"/>
<path d="M13.026 17.0515C12.5889 17.4015 12.0351 17.471 11.5593 17.1765C10.8372 16.7306 9.54845 15.7606 7.45095 13.6631C5.35345 11.5656 4.38387 10.2769 3.93762 9.55479C3.64304 9.07896 3.71262 8.52521 4.06262 8.08813C4.56679 7.45813 5.55429 6.33063 7.45095 4.43396C10.8939 0.991044 17.1922 0.991044 18.6572 2.45688C20.1226 3.92229 20.1226 10.2206 16.6797 13.6635C14.7826 15.5602 13.6555 16.5477 13.0255 17.0519L13.026 17.0515Z" stroke="#333E48" stroke-width="1.5" stroke-linecap="round" stroke-linejoin="round"/>
<path d="M9.64103 2.84564C6.13103 2.51939 3.88728 3.4348 2.64686 4.22897C1.87478 4.72314 1.9352 5.71147 2.61103 6.32064L4.27853 7.82355" stroke="#333E48" stroke-width="1.5" stroke-linecap="round" stroke-linejoin="round"/>
<path d="M18.3262 11.3602C18.4479 14.9852 17.4241 17.2669 16.6095 18.4931C16.1316 19.2131 15.2258 19.1756 14.6345 18.5627L13.1104 16.9835" stroke="#333E48" stroke-width="1.5" stroke-linecap="round" stroke-linejoin="round"/>
<path d="M12.0859 6.52771C11.4229 6.52771 10.787 6.7911 10.3182 7.25994C9.84933 7.72878 9.58594 8.36467 9.58594 9.02771C9.58594 9.69075 9.84933 10.3266 10.3182 10.7955C10.787 11.2643 11.4229 11.5277 12.0859 11.5277C12.749 11.5277 13.3849 11.2643 13.8537 10.7955C14.3225 10.3266 14.5859 9.69075 14.5859 9.02771C14.5859 8.36467 14.3225 7.72878 13.8537 7.25994C13.3849 6.7911 12.749 6.52771 12.0859 6.52771Z" stroke="#333E48" stroke-width="1.5" stroke-linecap="round" stroke-linejoin="round"/>
</g>
<defs>
<clipPath id="clip0_1547_10037">
<rect width="20" height="20" fill="white" transform="translate(0.835938 0.277832)"/>
</clipPath>
</defs>
</svg>
