<svg width="8" height="13" viewBox="0 0 8 13" fill="none" xmlns="http://www.w3.org/2000/svg">
<path d="M6.03286 0H1.96714C1.44554 0.000362452 0.945409 0.199004 0.576581 0.552304C0.207752 0.905603 0.000378384 1.38468 0 1.88432V11.1157C0.000378384 11.6153 0.207752 12.0944 0.576581 12.4477C0.945409 12.801 1.44554 12.9996 1.96714 13H6.03286C6.55446 12.9996 7.05459 12.801 7.42342 12.4477C7.79225 12.0944 7.99962 11.6153 8 11.1157V1.88432C7.99962 1.38468 7.79225 0.905603 7.42342 0.552304C7.05459 0.199004 6.55446 0.000362452 6.03286 0ZM7.28571 11.1157C7.28496 11.4338 7.15272 11.7386 6.91793 11.9635C6.68313 12.1884 6.3649 12.3151 6.03286 12.3158H1.96714C1.6351 12.3151 1.31687 12.1884 1.08207 11.9635C0.84728 11.7386 0.71504 11.4338 0.714286 11.1157V1.88432C0.71504 1.56625 0.84728 1.26142 1.08207 1.03651C1.31687 0.811605 1.6351 0.684933 1.96714 0.684211H2.07C2.02028 0.777643 1.99647 0.881752 2.00086 0.986539C2.00525 1.09133 2.0377 1.19327 2.09508 1.28259C2.15245 1.3719 2.23284 1.44559 2.32852 1.49656C2.4242 1.54754 2.53195 1.5741 2.64143 1.57368H5.35571C5.4652 1.5741 5.57295 1.54754 5.66862 1.49656C5.7643 1.44559 5.84469 1.3719 5.90207 1.28259C5.95945 1.19327 5.99189 1.09133 5.99628 0.986539C6.00067 0.881752 5.97686 0.777643 5.92714 0.684211H6.03C6.36254 0.68421 6.68151 0.810562 6.91692 1.03555C7.15233 1.26053 7.28496 1.56578 7.28571 1.88432V11.1157Z" fill="black"/>
</svg>
