<svg width="21" height="21" viewBox="0 0 21 21" fill="none" xmlns="http://www.w3.org/2000/svg">
<g clip-path="url(#clip0_2160_4096)">
<path d="M1.60938 9.27708C1.60938 11.3767 2.44345 13.3903 3.92811 14.875C5.41278 16.3597 7.42641 17.1937 9.52604 17.1937C11.6257 17.1937 13.6393 16.3597 15.124 14.875C16.6086 13.3903 17.4427 11.3767 17.4427 9.27708C17.4427 7.17745 16.6086 5.16381 15.124 3.67915C13.6393 2.19449 11.6257 1.36041 9.52604 1.36041C7.42641 1.36041 5.41278 2.19449 3.92811 3.67915C2.44345 5.16381 1.60938 7.17745 1.60938 9.27708Z" stroke="#333E48" stroke-width="1.5" stroke-linecap="round" stroke-linejoin="round"/>
<path d="M13.8828 15.8883L14.2899 16.3787C14.8153 17.0129 15.3332 17.6379 15.9016 18.2546C16.5724 18.9829 17.5932 19.0683 18.3016 18.3771C18.4141 18.2672 18.5252 18.156 18.6349 18.0433C19.3266 17.3346 19.2411 16.3137 18.5132 15.6429C17.8966 15.0742 17.2716 14.5562 16.6374 14.0304C16.4741 13.895 16.3099 13.7592 16.1453 13.6217" stroke="#333E48" stroke-width="1.5" stroke-linecap="round" stroke-linejoin="round"/>
</g>
<defs>
<clipPath id="clip0_2160_4096">
<rect width="20" height="20" fill="white" transform="translate(0.359375 0.110413)"/>
</clipPath>
</defs>
</svg>
