<svg width="24" height="24" viewBox="0 0 24 24" fill="none" xmlns="http://www.w3.org/2000/svg">
<path d="M2 14.9032L3.7742 16.6774C4.75407 15.6976 6.34276 15.6976 7.3226 16.6774C8.30247 17.6573 8.30245 19.246 7.3226 20.2258L9.0968 22L17.6452 13.4516L16.3549 12.1613L17 11.5161L18.2903 12.8065L22 9.09679L20.2258 7.32259C19.246 8.30244 17.6573 8.30246 16.6774 7.32259C15.6976 6.34275 15.6976 4.75406 16.6774 3.7742L14.9032 2L11.1936 5.70969L12.4839 7.00001L11.8387 7.64517L10.5484 6.35485L2 14.9032ZM8.4516 11.0323L10.5585 11.9294L12.3125 10.377L12.0656 12.6804L14.0413 13.8297L11.7782 14.3589L11.249 16.622L10.0998 14.6462L7.79639 14.8932L9.34878 13.1391L8.4516 11.0323ZM12.4839 8.29032L13.129 7.64517L14.4194 8.93548L13.7742 9.58065L12.4839 8.29032ZM14.4194 10.2258L15.0645 9.58065L16.3548 10.871L15.7097 11.5161L14.4194 10.2258Z" fill="#747688"/>
</svg>
