<svg width="30" height="30" viewBox="0 0 30 30" fill="none" xmlns="http://www.w3.org/2000/svg">
<path d="M10.3792 0.000976562H3.25622C2.39262 0.000976562 1.56439 0.344042 0.953725 0.954702C0.343065 1.56536 0 2.39359 0 3.2572V10.3802C0 11.2438 0.343065 12.072 0.953725 12.6827C1.56439 13.2933 2.39262 13.6364 3.25622 13.6364H10.3792C11.2428 13.6364 12.071 13.2933 12.6817 12.6827C13.2924 12.072 13.6354 11.2438 13.6354 10.3802V3.2572C13.6354 2.39359 13.2924 1.56536 12.6817 0.954702C12.071 0.344042 11.2428 0.000976563 10.3792 0.000976562ZM10.3792 10.3761H3.25622V3.2572H10.3792V10.3761Z" fill="white"/>
<path d="M26.7425 0.000976562H19.6195C18.7559 0.000976562 17.9277 0.344042 17.317 0.954702C16.7063 1.56536 16.3633 2.39359 16.3633 3.2572V10.3802C16.3633 11.2438 16.7063 12.072 17.317 12.6827C17.9277 13.2933 18.7559 13.6364 19.6195 13.6364H26.7425C27.6061 13.6364 28.4343 13.2933 29.045 12.6827C29.6556 12.072 29.9987 11.2438 29.9987 10.3802V3.2572C29.9987 2.39359 29.6556 1.56536 29.045 0.954702C28.4343 0.344042 27.6061 0.000976563 26.7425 0.000976562ZM26.7425 10.3761H19.6195V3.2572H26.7425V10.3761Z" fill="white"/>
<path d="M26.7425 16.3635H19.6195C18.7559 16.3635 17.9277 16.7066 17.317 17.3173C16.7063 17.9279 16.3633 18.7561 16.3633 19.6197V26.7427C16.3633 27.6063 16.7063 28.4346 17.317 29.0452C17.9277 29.6559 18.7559 29.999 19.6195 29.999H26.7425C27.6061 29.999 28.4343 29.6559 29.045 29.0452C29.6556 28.4346 29.9987 27.6063 29.9987 26.7427V19.6197C29.9987 18.7561 29.6556 17.9279 29.045 17.3173C28.4343 16.7066 27.6061 16.3635 26.7425 16.3635ZM26.7425 26.7387H19.6195V19.6197H26.7425V26.7387Z" fill="white"/>
<path d="M10.3792 16.3635H3.25622C2.39262 16.3635 1.56439 16.7066 0.953725 17.3173C0.343065 17.9279 0 18.7561 0 19.6197V26.7427C0 27.6063 0.343065 28.4346 0.953725 29.0452C1.56439 29.6559 2.39262 29.999 3.25622 29.999H10.3792C11.2428 29.999 12.071 29.6559 12.6817 29.0452C13.2924 28.4346 13.6354 27.6063 13.6354 26.7427V19.6197C13.6354 18.7561 13.2924 17.9279 12.6817 17.3173C12.071 16.7066 11.2428 16.3635 10.3792 16.3635ZM10.3792 26.7387H3.25622V19.6197H10.3792V26.7387Z" fill="white"/>
</svg>
