<svg width="30" height="32" viewBox="0 0 30 32" fill="none" xmlns="http://www.w3.org/2000/svg">
<path fill-rule="evenodd" clip-rule="evenodd" d="M19.1041 14.5251C17.8621 14.0503 11.3914 15.3028 10.0086 15.6419C4.59209 16.9777 -0.313381 19.8063 0.798006 26.8509C2.04002 24.5547 3.93419 22.7492 6.06863 21.2777C6.37118 21.0689 7.11233 20.2029 7.52454 19.853C10.6397 17.2176 15.3625 15.6991 18.8746 14.7756C18.9423 14.6869 19.0208 14.6033 19.1041 14.5251ZM18.3423 15.8663C15.0234 16.7848 10.8749 18.2197 8.11441 20.5525C5.39043 22.8588 4.03369 26.0891 6.29335 30.6606C7.26395 28.0774 8.75133 25.5987 10.5308 23.4958C11.7623 20.302 15.3993 17.8234 18.2905 16.2789C18.2952 16.1377 18.3111 16.002 18.3423 15.8663ZM18.431 17.2491C15.8373 18.6634 12.4506 20.9853 11.3653 23.8816C10.3687 26.7934 11.7724 29.0686 13.8439 31.0152C14.3448 29.716 14.7519 28.4009 15.1015 27.0546C15.0965 26.0891 15.3154 25.0559 15.6965 24.0227C16.4271 22.024 17.7629 19.9836 19.1982 18.3554C18.8486 18.058 18.5826 17.6769 18.431 17.2491ZM20.8314 18.0268C21.7343 18.0268 22.4596 17.3016 22.4596 16.3987C22.4596 15.5012 21.7343 14.7759 20.8314 14.7759C19.9339 14.7759 19.2032 15.5012 19.2032 16.3987C19.2032 17.3012 19.9444 18.0268 20.8314 18.0268ZM20.0121 18.8147C16.5994 22.624 12.7481 30.0917 20.7272 31.2291C18.144 27.4198 19.167 22.7076 21.228 18.9189C20.8212 18.9815 20.4036 18.945 20.0121 18.8147ZM22.5902 18.392C20.7952 21.3092 19.454 25.108 20.4456 28.5C21.5624 26.6526 23.1696 24.4819 25.0742 23.3756C23.9053 23.1983 23.0129 22.7546 22.0578 21.6432C21.6612 21.1894 22.3553 20.589 22.7465 21.0432C24.0982 22.6138 29.1861 24.1222 29.0294 20.4171C28.2987 20.3284 27.6882 20.4848 27.0046 20.7092C26.4306 20.8919 26.1437 20.0205 26.7176 19.8327C27.4534 19.5927 28.1265 19.4255 28.9042 19.4831C28.8676 19.3003 28.8206 19.1125 28.7685 18.9301C28.2832 18.8309 27.9021 18.5439 27.61 17.996C27.3281 17.4586 28.1424 17.0305 28.424 17.5683C28.5752 17.8552 28.7526 17.996 28.9719 18.0326C29.2277 18.0742 29.5719 18.0116 30 17.8759C29.6189 16.8948 28.5857 15.5485 27.7248 14.9485C27.5891 14.8703 27.5004 14.7241 27.5004 14.5519C27.5004 13.738 27.1613 12.9758 26.7542 12.2871C25.0218 13.0019 24.2495 13.7119 22.9029 14.917C23.8163 16.1898 23.3104 17.2281 22.5902 18.392ZM22.2406 14.2747C23.8792 12.8293 24.6461 12.1196 26.7755 11.2898L25.7314 9.83389C23.5659 10.6844 22.157 11.8793 20.962 13.8571C21.4318 13.8781 21.87 14.0293 22.2406 14.2747ZM17.5023 13.5285C17.5233 13.2625 17.57 12.9911 17.638 12.7196C10.9169 11.7751 2.09248 10.507 0 19.1172C0.955035 18.6685 1.98825 18.1882 2.98998 17.7815C6.76274 14.7495 12.8266 14.0608 17.5023 13.5285ZM17.9301 11.8326C18.1545 11.2692 18.457 10.7158 18.812 10.1784C12.075 8.07002 4.24249 4.73552 0.177335 13.0692C1.36182 12.7772 2.56729 12.5734 3.77784 12.4272C7.8325 10.3138 13.5779 11.2062 17.9301 11.8326ZM19.3914 9.39563C19.7566 8.9418 20.1637 8.50862 20.5969 8.11706C17.4817 5.95148 13.385 4.39101 9.59671 4.04683C5.95425 3.71822 2.4529 4.53213 0.214223 7.30823C1.44575 7.42295 2.6722 7.53768 3.90373 7.66831C8.57365 5.34604 14.7208 7.96037 19.3914 9.39563ZM21.3377 7.51704C21.7394 7.21956 22.1465 6.9742 22.5482 6.78638C19.7826 3.94226 16.5263 1.85485 13.0405 1.08798C10.2956 0.487954 7.39932 0.706915 4.48244 2.02745C5.65643 2.09513 9.13713 2.58585 9.88877 3.15474C13.8128 3.55104 18.1179 5.2259 21.3377 7.51704ZM18.4259 13.4814C18.9633 13.5075 19.4225 13.6067 19.8767 13.8886C21.1813 11.5717 22.6998 10.0897 25.1785 9.06668L23.8688 7.30823C21.1708 7.89776 18.6868 11.149 18.4259 13.4814Z" fill="#9BA5C0"/>
</svg>
