<svg width="21" height="26" viewBox="0 0 21 26" fill="none" xmlns="http://www.w3.org/2000/svg">
<path d="M12.452 10.3652H7.61134C7.39688 10.3652 7.21306 10.4571 7.05987 10.6103C5.83439 12.1116 -0.323688 19.7708 0.0133214 24.826C0.0439586 25.1936 0.350331 25.5 0.717977 25.5H4.3638C4.51699 25.5 4.63954 25.4081 4.70081 25.2549L6.47777 20.4142C6.5084 20.2917 6.69223 20.353 6.66159 20.4755L6.35522 25.1017C6.35522 25.3162 6.5084 25.5 6.72286 25.5H19.376C19.7437 25.5 20.05 25.2243 20.0807 24.826C20.4177 19.8015 14.2596 12.1116 13.0341 10.6103C12.8809 10.4571 12.6665 10.3652 12.452 10.3652Z" fill="#9BA5C0"/>
<path d="M6.29304 0.5H5.86412C5.77221 0.5 5.71094 0.561274 5.71094 0.653186V2.27696C5.95603 2.21568 6.20113 2.18505 6.44623 2.15441V0.653186C6.47687 0.561274 6.38495 0.5 6.29304 0.5Z" fill="#9BA5C0"/>
<path d="M14.1993 0.5H13.7704C13.6785 0.5 13.6172 0.561274 13.6172 0.653186V2.15441C13.8929 2.15441 14.138 2.21568 14.3525 2.27696V0.653186C14.3525 0.561274 14.2606 0.5 14.1993 0.5Z" fill="#9BA5C0"/>
<path d="M4.60975 3.87012L7.18327 8.92526C7.30582 9.13972 7.52028 9.2929 7.73474 9.2929H9.72616H10.3389H12.2997C12.5448 9.2929 12.7592 9.17035 12.8512 8.92526L15.4247 3.87012C15.5779 3.56375 15.4247 3.13483 15.0877 2.98164C14.1686 2.55272 12.3916 2.09316 10.4308 3.87012C10.2164 4.08458 9.84871 4.08458 9.63425 3.87012C7.67347 2.09316 5.86587 2.55272 4.9774 2.98164C4.60975 3.13483 4.45656 3.53311 4.60975 3.87012Z" fill="#9BA5C0"/>
</svg>
