<svg width="38" height="26" viewBox="0 0 38 26" fill="none" xmlns="http://www.w3.org/2000/svg">
<path d="M35.7685 6.5593L35.7676 6.5535C35.1995 3.11906 32.2169 0.5 28.622 0.5C26.584 0.5 24.7438 1.34257 23.4276 2.6971H14.2203C12.9041 1.34257 11.0639 0.5 9.0259 0.5C5.43104 0.5 2.44885 3.11906 1.88075 6.5535H1.8803L1.87941 6.5593L0 20.4526C0 23.2401 2.25948 25.5 5.04741 25.5C6.79359 25.5 8.33215 24.6133 9.23799 23.2655L12.0415 18.6877C11.1299 18.0585 10.5301 17.0079 10.5301 15.8191C10.5301 13.8983 12.0927 12.3357 14.0136 12.3357C15.9153 12.3357 17.4632 13.8675 17.4948 15.7616H20.1527C20.1838 13.8675 21.7322 12.3357 23.6339 12.3357C25.5552 12.3357 27.1173 13.8987 27.1173 15.8191C27.1173 17.0083 26.5176 18.0585 25.606 18.6877L28.4091 23.2655C29.3149 24.6129 30.8543 25.5 32.6005 25.5C35.388 25.5 37.6475 23.2401 37.6475 20.4526L35.7685 6.5593ZM12.4924 8.07111C12.4924 8.56302 12.0932 8.96225 11.6013 8.96225H9.90902V10.6545C9.90902 11.1464 9.50979 11.5457 9.01788 11.5457H8.36556C7.87365 11.5457 7.47442 11.1464 7.47442 10.6545V8.96225H5.78215C5.29024 8.96225 4.89101 8.56302 4.89101 8.07111V7.41835C4.89101 6.92645 5.29024 6.52722 5.78215 6.52722H7.47442V4.83539C7.47442 4.34348 7.87365 3.94425 8.36556 3.94425H9.01788C9.50979 3.94425 9.90902 4.34348 9.90902 4.83539V6.52722H11.6013C12.0932 6.52722 12.4924 6.92645 12.4924 7.41835V8.07111ZM28.9562 3.56373C29.7409 3.56373 30.3767 4.20001 30.3767 4.98421C30.3767 5.76841 29.7409 6.40558 28.9562 6.40558C28.1711 6.40558 27.5353 5.76886 27.5353 4.98465C27.5353 4.20045 28.1716 3.56373 28.9562 3.56373ZM26.1964 9.16543C25.4117 9.16543 24.7759 8.52916 24.7759 7.74496C24.7759 6.95986 25.4122 6.32448 26.1964 6.32448C26.9806 6.32448 27.6168 6.96031 27.6168 7.74496C27.6168 8.52916 26.981 9.16543 26.1964 9.16543ZM28.9562 11.9253C28.1711 11.9253 27.5353 11.2886 27.5353 10.5044C27.5353 9.72016 28.1716 9.08389 28.9562 9.08389C29.7409 9.08389 30.3767 9.72061 30.3767 10.5044C30.3771 11.2886 29.7409 11.9253 28.9562 11.9253ZM31.7161 9.16543C30.9314 9.16543 30.2956 8.52916 30.2956 7.74496C30.2956 6.95986 30.9319 6.32448 31.7161 6.32448C32.5003 6.32448 33.1365 6.96031 33.1365 7.74496C33.1365 8.52916 32.5003 9.16543 31.7161 9.16543Z" fill="#9BA5C0"/>
<path d="M14.0136 18.5047C15.4967 18.5047 16.699 17.3024 16.699 15.8192C16.699 14.3361 15.4967 13.1338 14.0136 13.1338C12.5304 13.1338 11.3281 14.3361 11.3281 15.8192C11.3281 17.3024 12.5304 18.5047 14.0136 18.5047Z" fill="#9BA5C0"/>
<path d="M23.6308 18.5047C25.1139 18.5047 26.3162 17.3024 26.3162 15.8192C26.3162 14.3361 25.1139 13.1338 23.6308 13.1338C22.1476 13.1338 20.9453 14.3361 20.9453 15.8192C20.9453 17.3024 22.1476 18.5047 23.6308 18.5047Z" fill="#9BA5C0"/>
</svg>
