<svg width="25" height="26" viewBox="0 0 25 26" fill="none" xmlns="http://www.w3.org/2000/svg">
<path d="M12.3397 6.50058L16.8559 1.98438L12.3505 3.0018L12.0022 3.35012L7.80859 7.54397L12.3397 6.50058Z" fill="#9BA5C0"/>
<path d="M24.7014 3.6555L23.9475 1.58423L21.0312 4.50049L24.7014 3.6555Z" fill="#9BA5C0"/>
<path d="M18.9491 4.97868L23.4275 0.5L18.9223 1.51742L14.418 6.02207L18.9491 4.97868Z" fill="#9BA5C0"/>
<path d="M3.71788 4.95166L0 5.79137V8.66979L1.52898 7.14076L3.71788 4.95166Z" fill="#9BA5C0"/>
<path d="M5.73425 8.02179L6.0837 7.67234L10.288 3.46777L5.78255 4.48523L5.42584 4.84193L1.20312 9.0649L5.73425 8.02179Z" fill="#9BA5C0"/>
<path d="M15.2821 17.3452L11.1661 14.7727C11.0066 14.6749 10.806 14.6698 10.6413 14.7624C10.4767 14.8499 10.3789 15.0248 10.3789 15.21V20.3551C10.3789 20.5403 10.4767 20.7152 10.6413 20.8027C10.7185 20.849 10.806 20.8696 10.8934 20.8696C10.986 20.8696 11.0838 20.8439 11.1661 20.7924L15.2821 18.2199C15.4313 18.1221 15.524 17.9575 15.524 17.7825C15.524 17.6076 15.4313 17.4378 15.2821 17.3452Z" fill="#9BA5C0"/>
<path d="M0.0859375 10.0649V23.4421C0.0859375 24.5791 1.00689 25.5001 2.14396 25.5001H22.7242C23.8561 25.5001 24.7822 24.5791 24.7822 23.4421V10.0649H0.0859375ZM12.4341 23.4421C9.31101 23.4421 6.7745 20.9056 6.7745 17.7825C6.7745 14.6595 9.31101 12.123 12.4341 12.123C15.552 12.123 18.0936 14.6595 18.0936 17.7825C18.0936 20.9056 15.552 23.4421 12.4341 23.4421Z" fill="#9BA5C0"/>
</svg>
