<svg width="24" height="26" viewBox="0 0 24 26" fill="none" xmlns="http://www.w3.org/2000/svg">
<path d="M7.53806 5.23976V17.7211C6.73705 16.998 5.67321 16.5568 4.50765 16.5568C2.02214 16.5568 0 18.5628 0 21.0284C0 23.494 2.02214 25.5 4.50765 25.5C6.99008 25.5 9.00991 23.499 9.0151 21.0378H9.0153V12.119L21.9603 8.26005V14.7128C21.1593 13.9899 20.0954 13.5486 18.9299 13.5486C16.4443 13.5486 14.4222 15.5545 14.4222 18.0201C14.4222 20.4858 16.4443 22.4917 18.9299 22.4917C21.4069 22.4917 23.4235 20.4993 23.4371 18.0451H23.4375V0.5L7.53806 5.23976Z" fill="#9BA5C0"/>
</svg>
