<svg width="30" height="26" viewBox="0 0 30 26" fill="none" xmlns="http://www.w3.org/2000/svg">
<path fill-rule="evenodd" clip-rule="evenodd" d="M14.8438 18.7192C14.8757 18.7192 14.9069 18.7096 14.9334 18.6916C14.96 18.6736 14.9806 18.6482 14.9928 18.6184C15.005 18.5886 15.0082 18.5558 15.0019 18.5242C14.9957 18.4925 14.9803 18.4635 14.9577 18.4407C14.9351 18.4179 14.9064 18.4024 14.875 18.3961C14.8437 18.3898 14.8112 18.393 14.7817 18.4053C14.7522 18.4176 14.727 18.4384 14.7092 18.4652C14.6914 18.492 14.6819 18.5235 14.6818 18.5557C14.6825 18.5989 14.6999 18.64 14.7301 18.6705C14.7603 18.701 14.801 18.7185 14.8438 18.7192ZM14.8438 17.394C15.0714 17.394 15.2938 17.4622 15.4831 17.5899C15.6723 17.7176 15.8197 17.8991 15.9068 18.1114C15.9939 18.3237 16.0166 18.5573 15.9722 18.7826C15.9277 19.0079 15.8181 19.2149 15.6571 19.3773C15.4961 19.5398 15.2911 19.6504 15.0678 19.6952C14.8446 19.74 14.6132 19.717 14.4029 19.629C14.1926 19.5411 14.0129 19.3922 13.8865 19.2011C13.76 19.0101 13.6925 18.7855 13.6925 18.5557C13.6933 18.2479 13.8149 17.953 14.0307 17.7355C14.2465 17.518 14.5388 17.3957 14.8438 17.3953V17.394ZM28.3265 19.8547H1.36035C0.581545 19.8547 0 19.4688 0 19.1221V17.2568H29.6875V19.1235C29.6875 19.4688 29.1053 19.856 28.3265 19.856V19.8547ZM21.0827 25.5H8.70438C9.90634 24.2035 10.726 22.5941 11.0711 20.853H18.5761C18.873 22.8485 19.8913 24.2087 21.0827 25.5ZM1.36035 0.5H28.3265C29.1053 0.5 29.6875 0.886921 29.6875 1.23255V16.2585H0V1.23222C0 0.886921 0.581545 0.5 1.36035 0.5Z" fill="#9BA5C0"/>
</svg>
